<svg version="1.2" preserveAspectRatio="xMidYMid meet" viewBox="153.9 301.319997396 571.86 127.979998894" zoomAndPan="magnify" xmlns:xlink="http://www.w3.org/1999/xlink" xmlns="http://www.w3.org/2000/svg" style="max-height: 500px" width="571.86" height="127.979998894"><defs><clipPath id="edb98c7f7e"><path d="M 539.164062 342.25 L 562.414062 342.25 L 562.414062 368.5 L 539.164062 368.5 Z M 539.164062 342.25"/></clipPath><clipPath id="7b64f0f425"><path d="M 639 304 L 717 304 L 717 384 L 639 384 Z M 639 304"/></clipPath><clipPath id="d10835df69"><path d="M 599.832031 324.089844 L 688.804688 294.542969 L 719.773438 387.78125 L 630.800781 417.332031 Z M 599.832031 324.089844"/></clipPath><clipPath id="1c3b7a0853"><path d="M 599.832031 324.089844 L 688.804688 294.542969 L 719.773438 387.78125 L 630.800781 417.332031 Z M 599.832031 324.089844"/></clipPath><clipPath id="38f65faab1"><path d="M 654 321 L 665 321 L 665 363 L 654 363 Z M 654 321"/></clipPath><clipPath id="ac106b8993"><path d="M 599.832031 324.089844 L 688.804688 294.542969 L 719.773438 387.78125 L 630.800781 417.332031 Z M 599.832031 324.089844"/></clipPath><clipPath id="f3b02e387a"><path d="M 599.832031 324.089844 L 688.804688 294.542969 L 719.773438 387.78125 L 630.800781 417.332031 Z M 599.832031 324.089844"/></clipPath><clipPath id="0cc34d7dd2"><path d="M 648 332 L 655 332 L 655 360 L 648 360 Z M 648 332"/></clipPath><clipPath id="b6c4a6302c"><path d="M 599.832031 324.089844 L 688.804688 294.542969 L 719.773438 387.78125 L 630.800781 417.332031 Z M 599.832031 324.089844"/></clipPath><clipPath id="8a9ac2a677"><path d="M 599.832031 324.089844 L 688.804688 294.542969 L 719.773438 387.78125 L 630.800781 417.332031 Z M 599.832031 324.089844"/></clipPath><clipPath id="fee7c5b28e"><path d="M 658 360 L 688 360 L 688 372 L 658 372 Z M 658 360"/></clipPath><clipPath id="825ff99a0e"><path d="M 599.832031 324.089844 L 688.804688 294.542969 L 719.773438 387.78125 L 630.800781 417.332031 Z M 599.832031 324.089844"/></clipPath><clipPath id="83f956f28d"><path d="M 599.832031 324.089844 L 688.804688 294.542969 L 719.773438 387.78125 L 630.800781 417.332031 Z M 599.832031 324.089844"/></clipPath><clipPath id="f64bbbace3"><path d="M 660 370 L 685 370 L 685 378 L 660 378 Z M 660 370"/></clipPath><clipPath id="d95435b494"><path d="M 599.832031 324.089844 L 688.804688 294.542969 L 719.773438 387.78125 L 630.800781 417.332031 Z M 599.832031 324.089844"/></clipPath><clipPath id="1a092d28f9"><path d="M 599.832031 324.089844 L 688.804688 294.542969 L 719.773438 387.78125 L 630.800781 417.332031 Z M 599.832031 324.089844"/></clipPath><clipPath id="ce820045d5"><path d="M 633 352 L 661 352 L 661 387 L 633 387 Z M 633 352"/></clipPath><clipPath id="c6b56d0fc4"><path d="M 599.832031 324.089844 L 688.804688 294.542969 L 719.773438 387.78125 L 630.800781 417.332031 Z M 599.832031 324.089844"/></clipPath><clipPath id="1c7bf45550"><path d="M 599.832031 324.089844 L 688.804688 294.542969 L 719.773438 387.78125 L 630.800781 417.332031 Z M 599.832031 324.089844"/></clipPath><clipPath id="e25a2ab3b7"><path d="M 628 346 L 637 346 L 637 355 L 628 355 Z M 628 346"/></clipPath><clipPath id="5fcef1099f"><path d="M 599.832031 324.089844 L 688.804688 294.542969 L 719.773438 387.78125 L 630.800781 417.332031 Z M 599.832031 324.089844"/></clipPath><clipPath id="119c717722"><path d="M 599.832031 324.089844 L 688.804688 294.542969 L 719.773438 387.78125 L 630.800781 417.332031 Z M 599.832031 324.089844"/></clipPath><clipPath id="d19c5198ff"><path d="M 603 330 L 628 330 L 628 347 L 603 347 Z M 603 330"/></clipPath><clipPath id="db3f886b8c"><path d="M 599.832031 324.089844 L 688.804688 294.542969 L 719.773438 387.78125 L 630.800781 417.332031 Z M 599.832031 324.089844"/></clipPath><clipPath id="62cdc210b0"><path d="M 599.832031 324.089844 L 688.804688 294.542969 L 719.773438 387.78125 L 630.800781 417.332031 Z M 599.832031 324.089844"/></clipPath><clipPath id="d83370ff14"><path d="M 611 323 L 631 323 L 631 346 L 611 346 Z M 611 323"/></clipPath><clipPath id="d19a4ccde5"><path d="M 599.832031 324.089844 L 688.804688 294.542969 L 719.773438 387.78125 L 630.800781 417.332031 Z M 599.832031 324.089844"/></clipPath><clipPath id="87e1d50b8b"><path d="M 599.832031 324.089844 L 688.804688 294.542969 L 719.773438 387.78125 L 630.800781 417.332031 Z M 599.832031 324.089844"/></clipPath><clipPath id="93e66b4e72"><path d="M 638 350 L 640 350 L 640 351 L 638 351 Z M 638 350"/></clipPath><clipPath id="1deaac31c7"><path d="M 599.832031 324.089844 L 688.804688 294.542969 L 719.773438 387.78125 L 630.800781 417.332031 Z M 599.832031 324.089844"/></clipPath><clipPath id="f6f549bea9"><path d="M 599.832031 324.089844 L 688.804688 294.542969 L 719.773438 387.78125 L 630.800781 417.332031 Z M 599.832031 324.089844"/></clipPath><clipPath id="332f54cae3"><path d="M 636 317 L 647 317 L 647 348 L 636 348 Z M 636 317"/></clipPath><clipPath id="70168b1ccc"><path d="M 599.832031 324.089844 L 688.804688 294.542969 L 719.773438 387.78125 L 630.800781 417.332031 Z M 599.832031 324.089844"/></clipPath><clipPath id="0ce2ca5e0d"><path d="M 599.832031 324.089844 L 688.804688 294.542969 L 719.773438 387.78125 L 630.800781 417.332031 Z M 599.832031 324.089844"/></clipPath><clipPath id="4eaf1e7bf9"><path d="M 677 381 L 702 381 L 702 394 L 677 394 Z M 677 381"/></clipPath><clipPath id="9373de524a"><path d="M 599.832031 324.089844 L 688.804688 294.542969 L 719.773438 387.78125 L 630.800781 417.332031 Z M 599.832031 324.089844"/></clipPath><clipPath id="b1e6c93aef"><path d="M 599.832031 324.089844 L 688.804688 294.542969 L 719.773438 387.78125 L 630.800781 417.332031 Z M 599.832031 324.089844"/></clipPath></defs><g id="ab430ba36a"><g clip-path="url(#edb98c7f7e)" clip-rule="nonzero"><path d="M 562.382812 347.632812 C 562.351562 348.308594 562.25 349.011719 562.066406 349.78125 C 561.730469 351.203125 561.1875 352.722656 560.40625 354.425781 C 559.800781 355.753906 559.066406 357.164062 558.167969 358.738281 C 557.929688 359.15625 557.667969 359.601562 557.351562 360.136719 C 557.339844 360.164062 557.328125 360.191406 557.308594 360.214844 C 557.058594 360.625 556.8125 361.039062 556.5625 361.453125 L 556.230469 362.003906 C 555.414062 363.363281 554.4375 364.644531 553.5 365.882812 C 553 366.542969 552.476562 367.226562 551.992188 367.914062 C 551.917969 368.019531 551.78125 368.078125 551.644531 368.0625 C 551.566406 368.054688 551.492188 368.027344 551.4375 367.980469 C 551.386719 367.941406 551.347656 367.890625 551.320312 367.832031 L 551.304688 367.832031 C 551.261719 367.828125 551.222656 367.816406 551.1875 367.804688 C 550.519531 367.503906 549.847656 367.121094 549.140625 366.617188 C 547.980469 365.800781 546.855469 364.789062 545.695312 363.523438 C 544.550781 362.265625 543.511719 360.90625 542.605469 359.46875 C 541.609375 357.882812 540.851562 356.378906 540.289062 354.875 C 539.984375 354.070312 539.746094 353.277344 539.574219 352.515625 C 539.390625 351.714844 539.285156 350.980469 539.25 350.273438 C 539.164062 348.664062 539.40625 347.257812 539.972656 346.082031 C 540.140625 345.726562 540.355469 345.347656 540.632812 344.921875 C 540.894531 344.519531 541.140625 344.183594 541.386719 343.898438 C 541.921875 343.28125 542.449219 342.863281 543 342.597656 C 543.515625 342.359375 544.074219 342.261719 544.617188 342.308594 L 544.640625 342.3125 C 544.902344 342.339844 545.175781 342.402344 545.449219 342.503906 C 545.691406 342.589844 545.9375 342.710938 546.222656 342.882812 C 546.691406 343.160156 547.144531 343.53125 547.644531 344.046875 C 548.082031 344.5 548.5 345.007812 548.925781 345.605469 C 549.671875 346.660156 550.386719 347.890625 551.113281 349.371094 C 551.441406 350.039062 551.753906 350.734375 552.050781 351.433594 L 552.070312 351.367188 C 552.214844 350.847656 552.398438 350.316406 552.628906 349.734375 C 553.148438 348.421875 553.773438 347.191406 554.492188 346.074219 C 554.890625 345.453125 555.277344 344.933594 555.667969 344.488281 C 556.140625 343.945312 556.5625 343.558594 556.996094 343.253906 C 557.503906 342.902344 557.988281 342.6875 558.46875 342.597656 C 558.703125 342.558594 558.945312 342.546875 559.183594 342.570312 C 559.460938 342.597656 559.726562 342.664062 559.972656 342.777344 C 560.492188 343.007812 560.96875 343.402344 561.398438 343.949219 C 561.59375 344.199219 561.757812 344.464844 561.894531 344.753906 C 562.019531 345.019531 562.125 345.3125 562.214844 345.65625 C 562.359375 346.234375 562.414062 346.882812 562.382812 347.632812 Z M 562.382812 347.632812" style="stroke:none;fill-rule:nonzero;fill:#ff5757;fill-opacity:1;"/></g><g clip-path="url(#7b64f0f425)" clip-rule="nonzero"><g clip-path="url(#d10835df69)" clip-rule="nonzero"><g clip-path="url(#1c3b7a0853)" clip-rule="nonzero"><path d="M 714.058594 379.535156 C 712.890625 379.28125 711.792969 378.832031 710.660156 378.492188 C 709.515625 378.164062 708.441406 377.671875 707.347656 377.230469 C 706.238281 376.816406 705.199219 376.269531 704.148438 375.738281 C 703.078125 375.242188 702.089844 374.609375 701.082031 374.003906 C 700.054688 373.433594 699.144531 372.691406 698.171875 372.03125 C 697.226562 371.339844 696.339844 370.570312 695.4375 369.820312 C 694.585938 369.007812 693.691406 368.25 692.894531 367.371094 C 692.0625 366.539062 691.285156 365.640625 690.507812 364.742188 C 689.746094 363.824219 688.992188 362.902344 688.257812 361.933594 L 686.003906 358.984375 L 685.414062 358.230469 L 684.710938 357.402344 C 684.214844 356.804688 683.796875 356.449219 683.332031 355.980469 C 683.332031 355.980469 683.222656 355.882812 683.207031 355.871094 L 683.148438 355.824219 L 683.027344 355.734375 L 682.785156 355.558594 L 682.296875 355.210938 C 681.976562 354.957031 681.617188 354.808594 681.269531 354.625 C 680.578125 354.242188 679.847656 354.042969 679.128906 353.820312 C 677.683594 353.441406 676.261719 353.359375 674.878906 353.375 C 673.492188 353.394531 672.15625 353.578125 670.84375 353.828125 C 670.777344 353.84375 670.714844 353.859375 670.648438 353.871094 C 670.875 352.964844 671.132812 352.070312 671.269531 351.140625 L 671.777344 347.902344 L 672.027344 346.285156 L 672.140625 344.644531 L 672.359375 341.363281 C 672.363281 340.265625 672.320312 339.167969 672.300781 338.070312 L 672.261719 336.421875 L 672.085938 334.78125 C 671.949219 333.691406 671.886719 332.589844 671.6875 331.503906 L 671.054688 328.261719 C 670.816406 327.1875 670.480469 326.132812 670.195312 325.070312 C 669.933594 323.996094 669.492188 322.980469 669.132812 321.9375 C 668.785156 320.886719 668.3125 319.886719 667.867188 318.878906 C 667.445312 317.855469 666.90625 316.890625 666.394531 315.910156 C 665.90625 314.917969 665.273438 314 664.714844 313.042969 C 664.089844 312.125 663.492188 311.191406 662.792969 310.3125 C 662.117188 309.402344 661.429688 308.589844 660.542969 307.667969 L 657.832031 304.828125 L 656.9375 308.820312 C 656.738281 309.707031 656.574219 310.597656 656.355469 311.480469 C 656.09375 312.351562 655.902344 313.238281 655.585938 314.09375 C 655.011719 315.820312 654.347656 317.523438 653.542969 319.167969 C 653.175781 320.003906 652.710938 320.796875 652.292969 321.613281 C 651.835938 322.410156 651.371094 323.203125 650.851562 323.960938 C 650.34375 324.730469 649.84375 325.5 649.375 326.300781 C 648.917969 327.105469 648.402344 327.878906 647.902344 328.667969 C 646.882812 330.230469 645.777344 331.75 644.628906 333.261719 C 644.046875 334.03125 643.460938 334.746094 642.863281 335.570312 C 642.191406 336.484375 641.761719 337.445312 641.390625 338.402344 C 640.691406 340.320312 640.3125 342.253906 640.0625 344.1875 C 639.820312 346.121094 639.707031 348.054688 639.707031 349.980469 C 640.070312 348.09375 640.539062 346.230469 641.121094 344.421875 C 641.710938 342.621094 642.363281 340.835938 643.265625 339.273438 C 643.722656 338.503906 644.226562 337.773438 644.796875 337.226562 L 646.855469 335.242188 C 648.25 333.886719 649.628906 332.484375 650.941406 331.003906 C 651.585938 330.257812 652.25 329.519531 652.863281 328.738281 C 653.503906 327.972656 654.046875 327.136719 654.5625 326.285156 C 655.5625 324.558594 656.5625 322.832031 657.410156 321.015625 C 658.292969 319.214844 659.023438 317.339844 659.660156 315.433594 C 659.839844 314.9375 659.988281 314.433594 660.125 313.921875 C 660.457031 314.398438 660.78125 314.882812 661.109375 315.359375 C 661.609375 316.230469 662.1875 317.050781 662.628906 317.957031 C 663.089844 318.847656 663.585938 319.722656 663.96875 320.65625 C 664.375 321.578125 664.808594 322.484375 665.121094 323.445312 C 665.445312 324.398438 665.855469 325.320312 666.089844 326.304688 C 666.347656 327.277344 666.660156 328.238281 666.878906 329.222656 L 667.457031 332.191406 C 667.640625 333.183594 667.695312 334.195312 667.820312 335.199219 L 667.988281 336.703125 L 668.019531 338.222656 C 668.03125 339.234375 668.074219 340.246094 668.074219 341.257812 L 667.867188 344.292969 L 667.765625 345.8125 L 667.53125 347.320312 L 667.058594 350.335938 C 666.914062 351.34375 666.59375 352.320312 666.371094 353.316406 L 665.632812 356.289062 L 664.652344 360.253906 L 668.445312 358.898438 C 669.40625 358.558594 670.582031 358.25 671.667969 358.035156 C 672.777344 357.824219 673.890625 357.671875 674.972656 357.660156 C 676.046875 357.648438 677.109375 357.71875 678.050781 357.96875 C 678.503906 358.117188 678.980469 358.234375 679.363281 358.464844 C 679.554688 358.570312 679.78125 358.644531 679.941406 358.789062 L 680.203125 358.980469 L 680.335938 359.070312 C 680.335938 359.070312 680.402344 359.117188 680.429688 359.132812 C 680.839844 359.542969 681.328125 359.980469 681.585938 360.339844 L 682.078125 360.917969 L 682.625 361.625 L 684.863281 364.550781 C 685.617188 365.542969 686.425781 366.53125 687.234375 367.507812 C 688.070312 368.476562 688.90625 369.441406 689.816406 370.355469 C 690.679688 371.304688 691.664062 372.144531 692.597656 373.035156 C 693.589844 373.859375 694.570312 374.703125 695.609375 375.46875 C 695.878906 375.652344 696.140625 375.84375 696.402344 376.03125 L 693.683594 375.375 C 692.507812 375.113281 691.28125 374.808594 689.988281 374.667969 C 689.339844 374.597656 688.679688 374.585938 688.015625 374.636719 L 687.769531 374.652344 L 687.511719 374.675781 L 687.042969 374.726562 C 686.679688 374.773438 686.355469 374.824219 686.011719 374.894531 C 684.636719 375.148438 683.257812 375.75 682.175781 376.445312 C 681.058594 377.15625 680.210938 377.832031 679.261719 378.453125 C 678.332031 379.078125 677.386719 379.652344 676.417969 380.117188 C 675.398438 380.605469 674.4375 380.957031 673.34375 381.222656 C 672.273438 381.480469 671.167969 381.621094 670.046875 381.636719 C 667.804688 381.6875 665.503906 381.238281 663.335938 380.367188 C 665.308594 381.613281 667.554688 382.527344 669.957031 382.90625 C 671.15625 383.089844 672.386719 383.140625 673.617188 383.050781 C 674.824219 382.96875 676.121094 382.71875 677.273438 382.378906 C 678.484375 382.035156 679.617188 381.542969 680.714844 381.027344 C 681.800781 380.527344 682.890625 379.90625 683.8125 379.503906 C 684.769531 379.089844 685.617188 378.878906 686.554688 378.84375 C 686.785156 378.832031 687.042969 378.832031 687.257812 378.839844 L 687.660156 378.851562 C 687.660156 378.851562 687.769531 378.855469 687.792969 378.859375 L 687.839844 378.863281 L 688.027344 378.882812 L 689.539062 379.027344 C 690.558594 379.128906 691.617188 379.277344 692.707031 379.550781 C 692.707031 379.550781 696.117188 380.375 696.117188 380.375 C 699.515625 381.195312 703.273438 382.277344 706.785156 382.15625 C 708.523438 382.097656 710.25 381.929688 711.960938 381.609375 C 712.816406 381.449219 713.664062 381.257812 714.503906 381.03125 C 715.011719 380.894531 716.53125 380.113281 716.992188 380.25 Z M 714.058594 379.535156" style="stroke:none;fill-rule:nonzero;fill:#ff5757;fill-opacity:1;"/></g></g></g><g clip-path="url(#38f65faab1)" clip-rule="nonzero"><g clip-path="url(#ac106b8993)" clip-rule="nonzero"><g clip-path="url(#f3b02e387a)" clip-rule="nonzero"><path d="M 654.109375 362.957031 C 654.109375 362.957031 654.5625 362.410156 655.277344 361.429688 C 655.644531 360.957031 656.035156 360.339844 656.5 359.652344 C 656.9375 358.941406 657.402344 358.132812 657.867188 357.238281 C 658.769531 355.433594 659.664062 353.265625 660.292969 350.851562 C 660.632812 349.648438 660.859375 348.378906 661.078125 347.089844 C 661.296875 345.792969 661.429688 344.492188 661.496094 343.128906 C 661.585938 341.816406 661.625 340.453125 661.601562 339.128906 C 661.566406 337.800781 661.5625 336.484375 661.480469 335.210938 C 661.398438 333.933594 661.316406 332.703125 661.242188 331.53125 C 661.117188 330.347656 661.035156 329.21875 660.964844 328.179688 C 660.878906 327.140625 660.832031 326.179688 660.796875 325.335938 C 660.753906 324.433594 660.839844 323.695312 660.882812 323.085938 C 661.003906 321.875 661.011719 321.171875 661.011719 321.171875 C 661.011719 321.171875 661.242188 321.84375 661.453125 323.058594 C 661.5625 323.660156 661.683594 324.398438 661.875 325.167969 C 662.097656 325.992188 662.347656 326.917969 662.585938 327.933594 C 662.835938 328.945312 663.105469 330.046875 663.351562 331.210938 C 663.597656 332.421875 663.824219 333.65625 663.984375 334.976562 C 664.144531 336.289062 664.320312 337.652344 664.359375 339.054688 C 664.417969 340.457031 664.417969 341.867188 664.347656 343.328125 C 664.242188 344.730469 664.0625 346.1875 663.792969 347.574219 C 663.542969 348.972656 663.132812 350.320312 662.6875 351.597656 C 661.800781 354.15625 660.539062 356.382812 659.25 358.105469 C 658.617188 358.976562 657.953125 359.707031 657.351562 360.328125 C 656.734375 360.941406 656.171875 361.445312 655.679688 361.828125 C 655.210938 362.238281 654.792969 362.476562 654.527344 362.671875 C 654.253906 362.859375 654.109375 362.957031 654.109375 362.957031 Z M 654.109375 362.957031" style="stroke:none;fill-rule:nonzero;fill:#ff5757;fill-opacity:1;"/></g></g></g><g clip-path="url(#0cc34d7dd2)" clip-rule="nonzero"><g clip-path="url(#b6c4a6302c)" clip-rule="nonzero"><g clip-path="url(#8a9ac2a677)" clip-rule="nonzero"><path d="M 651.738281 359.34375 C 651.738281 359.34375 651.488281 358.980469 651.148438 358.285156 C 650.832031 357.582031 650.34375 356.578125 649.976562 355.296875 C 649.757812 354.664062 649.613281 353.953125 649.4375 353.210938 C 649.320312 352.457031 649.125 351.664062 649.074219 350.828125 C 648.992188 349.996094 648.910156 349.132812 648.933594 348.25 C 648.902344 347.371094 648.992188 346.476562 649.046875 345.585938 C 649.113281 344.691406 649.3125 343.816406 649.441406 342.945312 C 649.601562 342.082031 649.871094 341.257812 650.074219 340.445312 C 650.308594 339.644531 650.628906 338.898438 650.890625 338.183594 C 651.128906 337.457031 651.515625 336.835938 651.796875 336.234375 C 652.101562 335.644531 652.355469 335.089844 652.671875 334.648438 C 652.96875 334.199219 653.222656 333.804688 653.433594 333.480469 C 653.859375 332.839844 654.121094 332.488281 654.121094 332.488281 C 654.121094 332.488281 653.96875 332.90625 653.679688 333.613281 C 653.53125 333.964844 653.355469 334.394531 653.148438 334.882812 C 652.925781 335.363281 652.78125 335.949219 652.554688 336.558594 C 652.359375 337.175781 652.070312 337.816406 651.898438 338.539062 C 651.710938 339.253906 651.480469 339.996094 651.289062 340.777344 C 651.128906 341.5625 650.964844 342.375 650.796875 343.199219 C 650.695312 344.03125 650.519531 344.871094 650.46875 345.722656 C 650.402344 346.574219 650.296875 347.421875 650.3125 348.261719 C 650.285156 349.101562 650.28125 349.929688 650.328125 350.730469 C 650.339844 351.535156 650.445312 352.304688 650.484375 353.042969 C 650.601562 353.769531 650.644531 354.472656 650.773438 355.105469 C 650.972656 356.386719 651.207031 357.449219 651.40625 358.183594 C 651.601562 358.925781 651.738281 359.34375 651.738281 359.34375 Z M 651.738281 359.34375" style="stroke:none;fill-rule:nonzero;fill:#ff5757;fill-opacity:1;"/></g></g></g><g clip-path="url(#fee7c5b28e)" clip-rule="nonzero"><g clip-path="url(#825ff99a0e)" clip-rule="nonzero"><g clip-path="url(#83f956f28d)" clip-rule="nonzero"><path d="M 658.488281 369.714844 C 658.488281 369.714844 659.925781 368.019531 662.480469 365.871094 C 663.765625 364.804688 665.332031 363.628906 667.179688 362.59375 C 668.101562 362.078125 669.101562 361.601562 670.167969 361.21875 C 671.261719 360.898438 672.402344 360.570312 673.640625 360.640625 L 674.097656 360.65625 C 674.34375 360.675781 674.398438 360.703125 674.558594 360.730469 L 675.371094 360.886719 C 675.953125 361.074219 676.558594 361.242188 677.0625 361.5 C 678.125 361.953125 679.042969 362.613281 679.882812 363.265625 C 680.730469 363.914062 681.453125 364.640625 682.128906 365.320312 C 682.800781 366.003906 683.402344 366.675781 683.949219 367.296875 C 685.046875 368.53125 685.933594 369.574219 686.644531 370.214844 C 687.003906 370.53125 687.277344 370.792969 687.492188 370.933594 C 687.699219 371.09375 687.808594 371.175781 687.808594 371.175781 C 687.808594 371.175781 687.6875 371.113281 687.453125 371 C 687.214844 370.894531 686.875 370.710938 686.472656 370.433594 C 685.671875 369.878906 684.578125 368.996094 683.363281 367.871094 C 682.140625 366.761719 680.746094 365.441406 679.125 364.269531 C 678.316406 363.6875 677.4375 363.15625 676.503906 362.761719 C 676.035156 362.53125 675.574219 362.425781 675.113281 362.269531 L 674.308594 362.125 C 674.195312 362.109375 673.984375 362.058594 673.953125 362.070312 L 673.585938 362.070312 C 672.609375 361.984375 671.582031 362.257812 670.601562 362.527344 C 669.625 362.875 668.660156 363.242188 667.765625 363.703125 C 665.957031 364.605469 664.339844 365.625 662.96875 366.527344 C 661.609375 367.441406 660.472656 368.222656 659.707031 368.808594 C 658.929688 369.386719 658.488281 369.714844 658.488281 369.714844 Z M 658.488281 369.714844" style="stroke:none;fill-rule:nonzero;fill:#ff5757;fill-opacity:1;"/></g></g></g><g clip-path="url(#f64bbbace3)" clip-rule="nonzero"><g clip-path="url(#d95435b494)" clip-rule="nonzero"><g clip-path="url(#1a092d28f9)" clip-rule="nonzero"><path d="M 684.621094 370.929688 C 684.621094 370.929688 683.398438 372.148438 681.265625 373.621094 C 680.195312 374.351562 678.898438 375.136719 677.417969 375.832031 C 676.675781 376.167969 675.902344 376.515625 675.078125 376.78125 C 674.238281 377.042969 673.433594 377.308594 672.488281 377.429688 C 672.09375 377.503906 671.609375 377.507812 671.105469 377.488281 C 670.609375 377.496094 670.175781 377.367188 669.71875 377.300781 C 668.835938 377.066406 668 376.726562 667.285156 376.296875 C 665.820312 375.460938 664.699219 374.441406 663.714844 373.644531 C 663.222656 373.25 662.777344 372.875 662.359375 372.59375 C 661.949219 372.292969 661.558594 372.085938 661.222656 371.945312 C 660.886719 371.800781 660.613281 371.710938 660.417969 371.683594 C 660.21875 371.636719 660.113281 371.613281 660.113281 371.613281 C 660.113281 371.613281 660.222656 371.609375 660.421875 371.605469 C 660.628906 371.589844 660.929688 371.585938 661.304688 371.679688 C 661.683594 371.757812 662.136719 371.902344 662.621094 372.128906 C 663.117188 372.339844 663.640625 372.632812 664.191406 372.976562 C 665.300781 373.640625 666.507812 374.519531 667.875 375.183594 C 668.546875 375.550781 669.285156 375.753906 670.023438 375.957031 C 670.390625 375.992188 670.789062 376.105469 671.140625 376.082031 C 671.492188 376.09375 671.859375 376.101562 672.304688 376.015625 C 673.054688 375.941406 673.886719 375.691406 674.65625 375.46875 C 675.429688 375.226562 676.191406 374.96875 676.921875 374.679688 C 678.378906 374.105469 679.710938 373.476562 680.851562 372.914062 C 681.984375 372.34375 682.941406 371.867188 683.585938 371.496094 C 684.246094 371.136719 684.621094 370.929688 684.621094 370.929688 Z M 684.621094 370.929688" style="stroke:none;fill-rule:nonzero;fill:#ff5757;fill-opacity:1;"/></g></g></g><g clip-path="url(#ce820045d5)" clip-rule="nonzero"><g clip-path="url(#c6b56d0fc4)" clip-rule="nonzero"><g clip-path="url(#1c7bf45550)" clip-rule="nonzero"><path d="M 634.433594 353.285156 C 633.765625 353.417969 629.515625 354.863281 642.1875 369.082031 C 655.738281 384.285156 658.46875 386.035156 660.710938 386.492188 C 660.710938 386.492188 660.734375 386.507812 660.734375 386.5 C 660.742188 386.5 660.734375 386.476562 660.734375 386.476562 C 660.804688 384.1875 659.726562 381.128906 648.035156 364.453125 C 637.097656 348.855469 634.71875 352.664062 634.433594 353.285156 Z M 634.433594 353.285156" style="stroke:none;fill-rule:nonzero;fill:#ff5757;fill-opacity:1;"/></g></g></g><g clip-path="url(#e25a2ab3b7)" clip-rule="nonzero"><g clip-path="url(#5fcef1099f)" clip-rule="nonzero"><g clip-path="url(#119c717722)" clip-rule="nonzero"><path d="M 629.972656 347.648438 C 628.589844 348.746094 628.355469 350.769531 629.449219 352.152344 L 630.367188 353.308594 C 631.460938 354.691406 633.488281 354.925781 634.867188 353.832031 C 636.25 352.738281 636.484375 350.714844 635.390625 349.332031 L 634.472656 348.171875 C 633.378906 346.792969 631.355469 346.554688 629.972656 347.648438 Z M 629.972656 347.648438" style="stroke:none;fill-rule:nonzero;fill:#ff5757;fill-opacity:1;"/></g></g></g><g clip-path="url(#d19c5198ff)" clip-rule="nonzero"><g clip-path="url(#db3f886b8c)" clip-rule="nonzero"><g clip-path="url(#62cdc210b0)" clip-rule="nonzero"><path d="M 627.125 346.914062 C 627.125 346.914062 625.59375 345.359375 623.296875 343.023438 C 622.140625 341.871094 620.792969 340.53125 619.316406 339.136719 C 618.582031 338.4375 617.796875 337.742188 617.007812 337.035156 C 616.207031 336.339844 615.394531 335.632812 614.535156 334.996094 C 614.121094 334.660156 613.695312 334.335938 613.257812 334.042969 C 612.828125 333.734375 612.394531 333.429688 611.945312 333.179688 C 611.5 332.910156 611.0625 332.640625 610.609375 332.441406 L 609.941406 332.113281 L 609.25 331.867188 C 608.285156 331.527344 607.46875 331.390625 606.617188 331.449219 C 605.796875 331.515625 605.09375 331.867188 604.648438 332.425781 C 604.203125 332.980469 603.996094 333.675781 603.957031 334.292969 C 603.90625 334.914062 603.996094 335.480469 604.15625 335.910156 C 604.300781 336.347656 604.5 336.667969 604.65625 336.863281 C 604.820312 337.058594 604.910156 337.160156 604.910156 337.160156 C 604.910156 337.160156 604.800781 337.074219 604.601562 336.914062 C 604.488281 336.839844 604.386719 336.71875 604.265625 336.570312 C 604.128906 336.429688 604.011719 336.246094 603.902344 336.019531 C 603.660156 335.585938 603.472656 334.996094 603.425781 334.292969 C 603.367188 333.59375 603.464844 332.738281 603.980469 331.949219 C 604.46875 331.152344 605.425781 330.542969 606.464844 330.394531 C 607.472656 330.214844 608.664062 330.355469 609.632812 330.667969 L 610.410156 330.90625 L 611.167969 331.230469 C 611.691406 331.433594 612.171875 331.707031 612.648438 331.992188 C 613.140625 332.257812 613.597656 332.570312 614.058594 332.886719 C 614.527344 333.191406 614.976562 333.523438 615.410156 333.867188 C 616.292969 334.546875 617.117188 335.285156 617.929688 336.011719 C 618.734375 336.742188 619.480469 337.507812 620.199219 338.246094 C 621.625 339.734375 622.878906 341.195312 623.90625 342.476562 C 624.9375 343.761719 625.722656 344.886719 626.285156 345.660156 C 626.839844 346.445312 627.125 346.914062 627.125 346.914062 Z M 627.125 346.914062" style="stroke:none;fill-rule:nonzero;fill:#ff5757;fill-opacity:1;"/></g></g></g><g clip-path="url(#d83370ff14)" clip-rule="nonzero"><g clip-path="url(#d19a4ccde5)" clip-rule="nonzero"><g clip-path="url(#87e1d50b8b)" clip-rule="nonzero"><path d="M 630.335938 345.90625 C 630.335938 345.90625 629.339844 343.960938 627.847656 341.046875 C 627.089844 339.601562 626.199219 337.917969 625.210938 336.148438 C 624.71875 335.257812 624.179688 334.363281 623.636719 333.453125 C 623.082031 332.550781 622.515625 331.628906 621.886719 330.765625 C 621.59375 330.320312 621.285156 329.882812 620.953125 329.472656 C 620.636719 329.046875 620.316406 328.628906 619.960938 328.253906 C 619.617188 327.867188 619.28125 327.480469 618.90625 327.152344 L 618.367188 326.640625 L 617.78125 326.199219 C 616.960938 325.585938 616.222656 325.207031 615.390625 325.011719 C 614.589844 324.832031 613.816406 324.957031 613.226562 325.355469 C 612.628906 325.75 612.226562 326.351562 612.003906 326.929688 C 611.773438 327.507812 611.683594 328.074219 611.710938 328.53125 C 611.71875 328.992188 611.808594 329.359375 611.902344 329.589844 C 612.003906 329.824219 612.054688 329.953125 612.054688 329.953125 C 612.054688 329.953125 611.980469 329.835938 611.835938 329.625 C 611.75 329.519531 611.6875 329.371094 611.617188 329.195312 C 611.53125 329.019531 611.472656 328.808594 611.4375 328.5625 C 611.335938 328.078125 611.332031 327.457031 611.496094 326.769531 C 611.648438 326.085938 612 325.296875 612.726562 324.703125 C 613.429688 324.085938 614.527344 323.789062 615.566406 323.960938 C 616.578125 324.089844 617.671875 324.582031 618.503906 325.167969 L 619.175781 325.628906 L 619.800781 326.164062 C 620.238281 326.511719 620.617188 326.917969 620.988281 327.332031 C 621.375 327.734375 621.722656 328.167969 622.0625 328.609375 C 622.417969 329.042969 622.75 329.488281 623.058594 329.949219 C 623.699219 330.863281 624.265625 331.8125 624.820312 332.75 C 625.375 333.6875 625.855469 334.640625 626.320312 335.558594 C 627.234375 337.410156 627.996094 339.175781 628.59375 340.707031 C 629.191406 342.238281 629.605469 343.550781 629.910156 344.457031 C 630.203125 345.371094 630.335938 345.90625 630.335938 345.90625 Z M 630.335938 345.90625" style="stroke:none;fill-rule:nonzero;fill:#ff5757;fill-opacity:1;"/></g></g></g><g clip-path="url(#93e66b4e72)" clip-rule="nonzero"><g clip-path="url(#1deaac31c7)" clip-rule="nonzero"><g clip-path="url(#f6f549bea9)" clip-rule="nonzero"><path d="M 638.914062 350.109375 C 638.972656 350.242188 639.023438 350.378906 639.085938 350.511719 C 639.050781 350.378906 639.027344 350.25 638.992188 350.113281 Z M 638.914062 350.109375" style="stroke:none;fill-rule:nonzero;fill:#ff5757;fill-opacity:1;"/></g></g></g><g clip-path="url(#332f54cae3)" clip-rule="nonzero"><g clip-path="url(#70168b1ccc)" clip-rule="nonzero"><g clip-path="url(#0ce2ca5e0d)" clip-rule="nonzero"><path d="M 637.933594 343.925781 C 637.953125 343.78125 637.976562 343.652344 637.996094 343.511719 C 638.003906 343.226562 638.019531 342.949219 638.054688 342.679688 C 638.101562 342.351562 638.179688 342.050781 638.28125 341.769531 C 638.566406 340.261719 638.921875 338.917969 639.378906 337.667969 C 639.777344 336.632812 640.285156 335.460938 641.132812 334.304688 C 641.5 333.800781 641.863281 333.332031 642.226562 332.867188 C 642.246094 332.839844 642.269531 332.8125 642.289062 332.78125 C 642.394531 331.910156 642.488281 331.027344 642.496094 330.101562 C 642.539062 328.8125 642.445312 327.453125 642.261719 326.058594 C 642.222656 325.699219 642.160156 325.324219 642.085938 324.953125 C 642.507812 325.347656 642.925781 325.746094 643.347656 326.140625 C 644.039062 326.851562 644.769531 327.535156 645.429688 328.269531 C 645.460938 328.300781 645.492188 328.335938 645.523438 328.371094 C 645.722656 328.078125 645.921875 327.785156 646.109375 327.496094 L 646.453125 326.957031 C 646.59375 326.738281 646.722656 326.515625 646.859375 326.292969 C 646.34375 325.765625 645.816406 325.246094 645.304688 324.71875 C 644.5 323.957031 643.710938 323.1875 642.867188 322.449219 C 642.023438 321.6875 641.210938 321.003906 640.207031 320.214844 L 637.125 317.792969 L 637.84375 320.753906 C 638 321.410156 638.191406 322.074219 638.328125 322.726562 C 638.433594 323.363281 638.601562 324.023438 638.660156 324.648438 C 638.824219 325.910156 638.914062 327.144531 638.875 328.324219 C 638.886719 328.925781 638.808594 329.488281 638.773438 330.070312 C 638.707031 330.632812 638.625 331.195312 638.496094 331.726562 C 638.375 332.261719 638.261719 332.800781 638.179688 333.367188 C 638.113281 333.9375 637.992188 334.480469 637.886719 335.035156 C 637.652344 336.128906 637.335938 337.183594 636.984375 338.226562 C 636.808594 338.757812 636.613281 339.246094 636.441406 339.816406 C 636.25 340.453125 636.253906 341.144531 636.308594 341.839844 C 636.441406 343.238281 636.835938 344.675781 637.320312 346.125 C 637.421875 346.421875 637.542969 346.722656 637.652344 347.019531 C 637.714844 345.976562 637.808594 344.941406 637.933594 343.925781 Z M 637.933594 343.925781" style="stroke:none;fill-rule:nonzero;fill:#ff5757;fill-opacity:1;"/></g></g></g><g clip-path="url(#4eaf1e7bf9)" clip-rule="nonzero"><g clip-path="url(#9373de524a)" clip-rule="nonzero"><g clip-path="url(#b1e6c93aef)" clip-rule="nonzero"><path d="M 696.199219 390.878906 C 695.308594 390.335938 694.429688 389.675781 693.546875 389.054688 C 692.660156 388.449219 691.789062 387.757812 690.914062 387.074219 C 690.035156 386.417969 689.179688 385.667969 688.316406 384.941406 C 687.445312 384.234375 686.617188 383.421875 685.765625 382.660156 C 685.367188 382.289062 684.980469 381.894531 684.585938 381.507812 C 684.152344 381.703125 683.683594 381.941406 683.191406 382.191406 C 682.988281 382.296875 682.777344 382.394531 682.570312 382.5 C 683.320312 383.242188 684.066406 383.992188 684.832031 384.703125 C 685.066406 384.914062 685.296875 385.128906 685.53125 385.34375 L 683.449219 384.140625 C 682.804688 383.777344 682.128906 383.402344 681.449219 383.050781 C 680.429688 383.527344 679.179688 384.070312 677.851562 384.441406 C 677.851562 384.441406 678.652344 384.84375 679.304688 385.050781 C 679.464844 385.101562 679.644531 385.164062 679.800781 385.226562 L 680.085938 385.339844 C 680.085938 385.339844 680.164062 385.371094 680.179688 385.378906 L 680.214844 385.394531 L 680.351562 385.453125 L 681.453125 385.949219 C 682.199219 386.289062 682.980469 386.671875 683.816406 387.164062 C 683.816406 387.164062 686.429688 388.671875 686.429688 388.671875 C 689.03125 390.175781 691.953125 391.972656 694.398438 392.769531 C 695.605469 393.164062 696.78125 393.46875 697.90625 393.652344 C 698.464844 393.742188 699.015625 393.804688 699.546875 393.839844 C 699.871094 393.863281 700.746094 393.636719 701.105469 393.859375 L 698.855469 392.558594 C 697.972656 392.0625 697.082031 391.433594 696.199219 390.878906 Z M 696.199219 390.878906" style="stroke:none;fill-rule:nonzero;fill:#ff5757;fill-opacity:1;"/></g></g></g><g style="fill:#000000;fill-opacity:1;"><g transform="translate(154.832091, 405.449532)"><path d="M 22.84375 -55.40625 C 26.101562 -55.40625 29.226562 -54.84375 32.21875 -53.71875 C 35.21875 -52.601562 37.882812 -50.898438 40.21875 -48.609375 C 42.5625 -46.328125 44.398438 -43.445312 45.734375 -39.96875 C 47.066406 -36.488281 47.734375 -32.410156 47.734375 -27.734375 C 47.734375 -23.066406 47.066406 -18.992188 45.734375 -15.515625 C 44.398438 -12.035156 42.5625 -9.148438 40.21875 -6.859375 C 37.882812 -4.578125 35.21875 -2.863281 32.21875 -1.71875 C 29.226562 -0.570312 26.101562 0 22.84375 0 L 10.359375 0 C 8.804688 0 7.492188 -0.546875 6.421875 -1.640625 C 5.347656 -2.734375 4.8125 -4.035156 4.8125 -5.546875 L 4.8125 -41.609375 C 4.8125 -42.535156 4.773438 -43.828125 4.703125 -45.484375 C 4.628906 -47.140625 4.398438 -48.863281 4.015625 -50.65625 C 3.628906 -52.457031 2.972656 -54.039062 2.046875 -55.40625 Z M 22.84375 -5.546875 C 25.625 -5.546875 27.898438 -6.203125 29.671875 -7.515625 C 31.453125 -8.828125 32.851562 -10.566406 33.875 -12.734375 C 34.894531 -14.898438 35.609375 -17.296875 36.015625 -19.921875 C 36.429688 -22.554688 36.640625 -25.160156 36.640625 -27.734375 C 36.640625 -30.316406 36.429688 -32.921875 36.015625 -35.546875 C 35.609375 -38.179688 34.894531 -40.578125 33.875 -42.734375 C 32.851562 -44.898438 31.453125 -46.628906 29.671875 -47.921875 C 27.898438 -49.210938 25.625 -49.859375 22.84375 -49.859375 L 15.90625 -49.859375 L 15.90625 -5.546875 Z M 22.84375 -5.546875" style="stroke:none"/></g></g><g style="fill:#000000;fill-opacity:1;"><g transform="translate(204.615456, 405.449532)"><path d="M 14.234375 -33.21875 L 14.234375 -10.359375 C 14.234375 -9.003906 14.304688 -7.609375 14.453125 -6.171875 C 14.597656 -4.734375 14.78125 -3.453125 15 -2.328125 C 15.21875 -1.210938 15.425781 -0.4375 15.625 0 L 9.421875 0 C 7.859375 0 6.539062 -0.535156 5.46875 -1.609375 C 4.40625 -2.679688 3.875 -3.992188 3.875 -5.546875 L 3.875 -28.390625 C 3.875 -29.753906 3.800781 -31.15625 3.65625 -32.59375 C 3.507812 -34.03125 3.335938 -35.304688 3.140625 -36.421875 C 2.941406 -37.546875 2.722656 -38.328125 2.484375 -38.765625 L 8.6875 -38.765625 C 10.238281 -38.765625 11.550781 -38.226562 12.625 -37.15625 C 13.695312 -36.082031 14.234375 -34.769531 14.234375 -33.21875 Z M 8.328125 -45.703125 L 3 -45.703125 C 4.257812 -48.617188 5.335938 -50.757812 6.234375 -52.125 C 7.140625 -53.488281 8.03125 -54.363281 8.90625 -54.75 C 9.78125 -55.132812 10.800781 -55.351562 11.96875 -55.40625 L 17.296875 -55.40625 C 16.035156 -52.4375 14.953125 -50.28125 14.046875 -48.9375 C 13.148438 -47.601562 12.265625 -46.738281 11.390625 -46.34375 C 10.515625 -45.957031 9.492188 -45.742188 8.328125 -45.703125 Z M 8.328125 -45.703125" style="stroke:none"/></g></g><g style="fill:#000000;fill-opacity:1;"><g transform="translate(222.791499, 405.449532)"><path d="M 33.4375 -38.765625 L 39.640625 -38.765625 C 39.441406 -38.328125 39.234375 -37.546875 39.015625 -36.421875 C 38.796875 -35.304688 38.613281 -34.03125 38.46875 -32.59375 C 38.320312 -31.15625 38.25 -29.753906 38.25 -28.390625 L 38.25 -4.15625 C 38.25 3.820312 36.726562 9.742188 33.6875 13.609375 C 30.644531 17.484375 26.179688 19.421875 20.296875 19.421875 C 19.953125 19.421875 19.234375 19.359375 18.140625 19.234375 C 17.046875 19.109375 15.789062 18.925781 14.375 18.6875 C 12.96875 18.445312 11.546875 18.109375 10.109375 17.671875 C 8.671875 17.234375 7.441406 16.644531 6.421875 15.90625 L 10.296875 9.703125 C 10.734375 8.972656 11.351562 8.507812 12.15625 8.3125 C 12.957031 8.125 13.722656 8.222656 14.453125 8.609375 C 15.910156 9.484375 17.378906 10.347656 18.859375 11.203125 C 20.347656 12.054688 21.75 12.484375 23.0625 12.484375 C 24.28125 12.484375 25.21875 12.101562 25.875 11.34375 C 26.53125 10.59375 27.003906 9.609375 27.296875 8.390625 C 27.585938 7.171875 27.757812 5.878906 27.8125 4.515625 C 27.863281 3.160156 27.890625 1.898438 27.890625 0.734375 L 27.890625 -27.015625 C 26.671875 -29.109375 25.207031 -30.53125 23.5 -31.28125 C 21.800781 -32.03125 20.125 -32.101562 18.46875 -31.5 C 16.8125 -30.894531 15.421875 -29.59375 14.296875 -27.59375 C 13.179688 -25.59375 12.625 -22.867188 12.625 -19.421875 C 12.625 -14.796875 13.242188 -11.457031 14.484375 -9.40625 C 15.734375 -7.363281 17.351562 -6.316406 19.34375 -6.265625 C 21.34375 -6.222656 23.507812 -6.910156 25.84375 -8.328125 C 25.5 -5.890625 24.425781 -3.769531 22.625 -1.96875 C 20.820312 -0.164062 18.195312 0.734375 14.75 0.734375 C 12.601562 0.734375 10.582031 0.0859375 8.6875 -1.203125 C 6.789062 -2.492188 5.242188 -4.585938 4.046875 -7.484375 C 2.859375 -10.378906 2.265625 -14.234375 2.265625 -19.046875 C 2.265625 -22.742188 2.90625 -26.140625 4.1875 -29.234375 C 5.476562 -32.328125 7.269531 -34.8125 9.5625 -36.6875 C 11.851562 -38.5625 14.503906 -39.5 17.515625 -39.5 C 19.566406 -39.5 21.550781 -38.890625 23.46875 -37.671875 C 25.394531 -36.453125 26.867188 -34.285156 27.890625 -31.171875 L 27.890625 -33.21875 C 27.890625 -34.769531 28.421875 -36.082031 29.484375 -37.15625 C 30.554688 -38.226562 31.875 -38.765625 33.4375 -38.765625 Z M 33.4375 -38.765625" style="stroke:none"/></g></g><g style="fill:#000000;fill-opacity:1;"><g transform="translate(264.691281, 405.449532)"><path d="M 14.234375 -33.21875 L 14.234375 -10.359375 C 14.234375 -9.003906 14.304688 -7.609375 14.453125 -6.171875 C 14.597656 -4.734375 14.78125 -3.453125 15 -2.328125 C 15.21875 -1.210938 15.425781 -0.4375 15.625 0 L 9.421875 0 C 7.859375 0 6.539062 -0.535156 5.46875 -1.609375 C 4.40625 -2.679688 3.875 -3.992188 3.875 -5.546875 L 3.875 -28.390625 C 3.875 -29.753906 3.800781 -31.15625 3.65625 -32.59375 C 3.507812 -34.03125 3.335938 -35.304688 3.140625 -36.421875 C 2.941406 -37.546875 2.722656 -38.328125 2.484375 -38.765625 L 8.6875 -38.765625 C 10.238281 -38.765625 11.550781 -38.226562 12.625 -37.15625 C 13.695312 -36.082031 14.234375 -34.769531 14.234375 -33.21875 Z M 8.328125 -45.703125 L 3 -45.703125 C 4.257812 -48.617188 5.335938 -50.757812 6.234375 -52.125 C 7.140625 -53.488281 8.03125 -54.363281 8.90625 -54.75 C 9.78125 -55.132812 10.800781 -55.351562 11.96875 -55.40625 L 17.296875 -55.40625 C 16.035156 -52.4375 14.953125 -50.28125 14.046875 -48.9375 C 13.148438 -47.601562 12.265625 -46.738281 11.390625 -46.34375 C 10.515625 -45.957031 9.492188 -45.742188 8.328125 -45.703125 Z M 8.328125 -45.703125" style="stroke:none"/></g></g><g style="fill:#000000;fill-opacity:1;"><g transform="translate(282.867325, 405.449532)"><path d="M 17.671875 -15.25 C 17.671875 -13.75 17.828125 -12.28125 18.140625 -10.84375 C 18.453125 -9.40625 18.984375 -8.113281 19.734375 -6.96875 C 20.492188 -5.820312 21.539062 -4.984375 22.875 -4.453125 C 24.21875 -3.921875 25.9375 -3.820312 28.03125 -4.15625 C 26.625 -2.40625 24.992188 -1.164062 23.140625 -0.4375 C 21.285156 0.289062 19.460938 0.679688 17.671875 0.734375 C 15.816406 0.734375 14.097656 0.332031 12.515625 -0.46875 C 10.929688 -1.269531 9.664062 -2.71875 8.71875 -4.8125 C 7.769531 -6.90625 7.273438 -9.925781 7.234375 -13.875 L 7.234375 -33.21875 L -1.390625 -33.21875 L -0.296875 -35.984375 C 0.046875 -36.816406 0.59375 -37.488281 1.34375 -38 C 2.101562 -38.507812 2.921875 -38.765625 3.796875 -38.765625 L 7.234375 -38.765625 L 7.234375 -42.265625 C 7.234375 -43.628906 7.171875 -45.03125 7.046875 -46.46875 C 6.921875 -47.90625 6.75 -49.171875 6.53125 -50.265625 C 6.3125 -51.359375 6.082031 -52.148438 5.84375 -52.640625 L 12.125 -52.640625 C 13.625 -52.640625 14.921875 -52.085938 16.015625 -50.984375 C 17.117188 -49.890625 17.671875 -48.585938 17.671875 -47.078125 L 17.671875 -38.765625 L 27.375 -38.765625 L 26.28125 -36.0625 C 25.9375 -35.1875 25.382812 -34.503906 24.625 -34.015625 C 23.875 -33.523438 23.039062 -33.28125 22.125 -33.28125 L 17.671875 -33.21875 Z M 17.671875 -15.25" style="stroke:none"/></g></g><g style="fill:#000000;fill-opacity:1;"><g transform="translate(309.729903, 405.449532)"><path d="M 34.15625 -10.296875 C 34.15625 -8.929688 34.21875 -7.53125 34.34375 -6.09375 C 34.46875 -4.65625 34.640625 -3.375 34.859375 -2.25 C 35.078125 -1.132812 35.304688 -0.359375 35.546875 0.078125 L 29.265625 0.078125 C 27.765625 0.078125 26.476562 -0.457031 25.40625 -1.53125 C 24.332031 -2.601562 23.796875 -3.914062 23.796875 -5.46875 L 23.796875 -22.84375 C 23.796875 -23.382812 23.769531 -23.894531 23.71875 -24.375 C 22.070312 -23.789062 20.332031 -22.9375 18.5 -21.8125 C 16.675781 -20.695312 15.128906 -19.347656 13.859375 -17.765625 C 12.597656 -16.191406 11.96875 -14.40625 11.96875 -12.40625 C 11.96875 -10.21875 12.476562 -8.625 13.5 -7.625 C 14.519531 -6.625 15.785156 -6.1875 17.296875 -6.3125 C 18.804688 -6.4375 20.269531 -7.082031 21.6875 -8.25 C 21.488281 -6.351562 20.863281 -4.734375 19.8125 -3.390625 C 18.769531 -2.054688 17.554688 -1.035156 16.171875 -0.328125 C 14.785156 0.378906 13.4375 0.734375 12.125 0.734375 C 9.976562 0.734375 8.125 0.195312 6.5625 -0.875 C 5.007812 -1.945312 3.796875 -3.332031 2.921875 -5.03125 C 2.046875 -6.738281 1.609375 -8.515625 1.609375 -10.359375 C 1.609375 -12.703125 2.25 -14.722656 3.53125 -16.421875 C 4.820312 -18.128906 6.523438 -19.613281 8.640625 -20.875 C 10.765625 -22.144531 13.09375 -23.289062 15.625 -24.3125 C 18.15625 -25.332031 20.6875 -26.351562 23.21875 -27.375 C 22.726562 -29.175781 21.828125 -30.5625 20.515625 -31.53125 C 19.203125 -32.507812 17.398438 -33 15.109375 -33 C 13.597656 -33 12.195312 -32.726562 10.90625 -32.1875 C 9.625 -31.65625 8.578125 -30.925781 7.765625 -30 C 6.960938 -29.070312 6.5625 -28.050781 6.5625 -26.9375 C 5.300781 -27.664062 4.5625 -28.710938 4.34375 -30.078125 C 4.125 -31.441406 4.488281 -32.851562 5.4375 -34.3125 C 6.382812 -35.769531 7.941406 -37 10.109375 -38 C 12.273438 -39 15.085938 -39.5 18.546875 -39.5 C 23.359375 -39.5 27.148438 -38.109375 29.921875 -35.328125 C 32.703125 -32.554688 34.113281 -28.394531 34.15625 -22.84375 Z M 34.15625 -10.296875" style="stroke:none"/></g></g><g style="fill:#000000;fill-opacity:1;"><g transform="translate(347.249928, 405.449532)"><path d="M 13.9375 -10.359375 C 13.9375 -9.003906 14.007812 -7.609375 14.15625 -6.171875 C 14.300781 -4.734375 14.484375 -3.453125 14.703125 -2.328125 C 14.921875 -1.210938 15.128906 -0.4375 15.328125 0 L 9.125 0 C 7.5625 0 6.242188 -0.535156 5.171875 -1.609375 C 4.109375 -2.679688 3.578125 -3.992188 3.578125 -5.546875 L 3.578125 -47.8125 C 3.578125 -49.175781 3.503906 -50.5625 3.359375 -51.96875 C 3.210938 -53.382812 3.039062 -54.648438 2.84375 -55.765625 C 2.65625 -56.890625 2.4375 -57.695312 2.1875 -58.1875 L 8.390625 -58.1875 C 9.953125 -58.1875 11.265625 -57.632812 12.328125 -56.53125 C 13.398438 -55.4375 13.9375 -54.140625 13.9375 -52.640625 Z M 13.9375 -10.359375" style="stroke:none"/></g></g><g style="fill:#000000;fill-opacity:1;"><g transform="translate(365.206966, 405.449532)"><path d="M 5.84375 -55.40625 C 7.9375 -55.40625 9.53125 -54.695312 10.625 -53.28125 C 11.71875 -51.875 12.265625 -50.195312 12.265625 -48.25 C 12.265625 -46.351562 11.8125 -44.625 10.90625 -43.0625 C 10.007812 -41.507812 8.84375 -40.28125 7.40625 -39.375 C 5.96875 -38.476562 4.472656 -38.03125 2.921875 -38.03125 C 3.503906 -38.613281 4.179688 -39.367188 4.953125 -40.296875 C 5.734375 -41.222656 6.125 -42.050781 6.125 -42.78125 C 6.125 -43.414062 5.859375 -43.953125 5.328125 -44.390625 C 4.796875 -44.828125 4.1875 -45.273438 3.5 -45.734375 C 2.820312 -46.191406 2.210938 -46.785156 1.671875 -47.515625 C 1.140625 -48.253906 0.875 -49.226562 0.875 -50.4375 C 0.875 -51.5625 1.300781 -52.671875 2.15625 -53.765625 C 3.007812 -54.859375 4.238281 -55.40625 5.84375 -55.40625 Z M 5.84375 -55.40625" style="stroke:none"/></g></g><g style="fill:#000000;fill-opacity:1;"><g transform="translate(376.740344, 405.449532)"><path d="M 16.140625 0.734375 C 13.847656 0.734375 11.703125 0.394531 9.703125 -0.28125 C 7.710938 -0.96875 6.007812 -1.859375 4.59375 -2.953125 C 3.1875 -4.046875 2.25 -5.25 1.78125 -6.5625 C 1.320312 -7.882812 1.507812 -9.175781 2.34375 -10.4375 C 2.925781 -11.269531 3.785156 -12.085938 4.921875 -12.890625 C 6.066406 -13.691406 7.367188 -14.164062 8.828125 -14.3125 C 8.785156 -12.257812 9.203125 -10.453125 10.078125 -8.890625 C 10.953125 -7.335938 12.03125 -6.132812 13.3125 -5.28125 C 14.601562 -4.4375 15.785156 -4.015625 16.859375 -4.015625 C 18.367188 -4.015625 19.609375 -4.328125 20.578125 -4.953125 C 21.554688 -5.585938 22.046875 -6.492188 22.046875 -7.671875 C 22.046875 -8.640625 21.445312 -9.570312 20.25 -10.46875 C 19.0625 -11.375 17.445312 -12.347656 15.40625 -13.390625 C 13.363281 -14.441406 11.078125 -15.671875 8.546875 -17.078125 C 6.398438 -18.242188 4.671875 -19.628906 3.359375 -21.234375 C 2.046875 -22.847656 1.390625 -24.796875 1.390625 -27.078125 C 1.390625 -29.222656 2.019531 -31.242188 3.28125 -33.140625 C 4.550781 -35.035156 6.28125 -36.578125 8.46875 -37.765625 C 10.65625 -38.960938 13.113281 -39.5625 15.84375 -39.5625 C 18.320312 -39.5625 20.535156 -39.171875 22.484375 -38.390625 C 24.429688 -37.617188 26.023438 -36.644531 27.265625 -35.46875 C 28.503906 -34.300781 29.28125 -33.109375 29.59375 -31.890625 C 29.914062 -30.679688 29.6875 -29.640625 28.90625 -28.765625 C 28.519531 -28.328125 27.835938 -27.898438 26.859375 -27.484375 C 25.890625 -27.066406 24.84375 -26.722656 23.71875 -26.453125 C 22.601562 -26.191406 21.632812 -26.085938 20.8125 -26.140625 C 20.851562 -27.546875 20.691406 -28.929688 20.328125 -30.296875 C 19.960938 -31.660156 19.316406 -32.78125 18.390625 -33.65625 C 17.472656 -34.53125 16.207031 -34.96875 14.59375 -34.96875 C 13.1875 -34.96875 12.007812 -34.578125 11.0625 -33.796875 C 10.113281 -33.015625 9.640625 -32.039062 9.640625 -30.875 C 9.640625 -29.707031 10.269531 -28.578125 11.53125 -27.484375 C 12.800781 -26.390625 14.503906 -25.332031 16.640625 -24.3125 C 18.242188 -23.53125 19.894531 -22.75 21.59375 -21.96875 C 23.300781 -21.195312 24.875 -20.332031 26.3125 -19.375 C 27.75 -18.425781 28.90625 -17.269531 29.78125 -15.90625 C 30.65625 -14.550781 31.09375 -12.875 31.09375 -10.875 C 31.09375 -8.6875 30.382812 -6.71875 28.96875 -4.96875 C 27.5625 -3.21875 25.710938 -1.828125 23.421875 -0.796875 C 21.140625 0.222656 18.710938 0.734375 16.140625 0.734375 Z M 16.140625 0.734375" style="stroke:none"/></g></g><g style="fill:#000000;fill-opacity:1;"><g transform="translate(409.004647, 405.449532)"><path d="" style="stroke:none"/></g></g><g style="fill:#ff5757;fill-opacity:1;"><g transform="translate(421.71489, 405.449532)"><path d="M 22.84375 -55.40625 C 26.101562 -55.40625 29.226562 -54.84375 32.21875 -53.71875 C 35.21875 -52.601562 37.882812 -50.898438 40.21875 -48.609375 C 42.5625 -46.328125 44.398438 -43.445312 45.734375 -39.96875 C 47.066406 -36.488281 47.734375 -32.410156 47.734375 -27.734375 C 47.734375 -23.066406 47.066406 -18.992188 45.734375 -15.515625 C 44.398438 -12.035156 42.5625 -9.148438 40.21875 -6.859375 C 37.882812 -4.578125 35.21875 -2.863281 32.21875 -1.71875 C 29.226562 -0.570312 26.101562 0 22.84375 0 L 10.359375 0 C 8.804688 0 7.492188 -0.546875 6.421875 -1.640625 C 5.347656 -2.734375 4.8125 -4.035156 4.8125 -5.546875 L 4.8125 -41.609375 C 4.8125 -42.535156 4.773438 -43.828125 4.703125 -45.484375 C 4.628906 -47.140625 4.398438 -48.863281 4.015625 -50.65625 C 3.628906 -52.457031 2.972656 -54.039062 2.046875 -55.40625 Z M 22.84375 -5.546875 C 25.625 -5.546875 27.898438 -6.203125 29.671875 -7.515625 C 31.453125 -8.828125 32.851562 -10.566406 33.875 -12.734375 C 34.894531 -14.898438 35.609375 -17.296875 36.015625 -19.921875 C 36.429688 -22.554688 36.640625 -25.160156 36.640625 -27.734375 C 36.640625 -30.316406 36.429688 -32.921875 36.015625 -35.546875 C 35.609375 -38.179688 34.894531 -40.578125 33.875 -42.734375 C 32.851562 -44.898438 31.453125 -46.628906 29.671875 -47.921875 C 27.898438 -49.210938 25.625 -49.859375 22.84375 -49.859375 L 15.90625 -49.859375 L 15.90625 -5.546875 Z M 22.84375 -5.546875" style="stroke:none"/></g></g><g style="fill:#ff5757;fill-opacity:1;"><g transform="translate(471.498255, 405.449532)"><path d="M 21.171875 -6.28125 C 23.453125 -6.28125 25.492188 -6.898438 27.296875 -8.140625 C 29.097656 -9.378906 30.269531 -10.945312 30.8125 -12.84375 C 31.78125 -11.820312 32.273438 -10.519531 32.296875 -8.9375 C 32.328125 -7.351562 31.757812 -5.785156 30.59375 -4.234375 C 29.5625 -2.816406 28.023438 -1.632812 25.984375 -0.6875 C 23.941406 0.257812 21.703125 0.734375 19.265625 0.734375 C 15.273438 0.734375 11.953125 -0.203125 9.296875 -2.078125 C 6.648438 -3.953125 4.671875 -6.410156 3.359375 -9.453125 C 2.046875 -12.492188 1.390625 -15.816406 1.390625 -19.421875 C 1.390625 -22.972656 2.054688 -26.269531 3.390625 -29.3125 C 4.734375 -32.351562 6.742188 -34.8125 9.421875 -36.6875 C 12.097656 -38.5625 15.429688 -39.5 19.421875 -39.5 C 23.648438 -39.5 27.050781 -38.390625 29.625 -36.171875 C 32.207031 -33.953125 33.5 -31.09375 33.5 -27.59375 C 33.5 -25.113281 32.914062 -23.03125 31.75 -21.34375 C 30.582031 -19.664062 29.085938 -18.316406 27.265625 -17.296875 C 25.441406 -16.273438 23.539062 -15.492188 21.5625 -14.953125 C 19.59375 -14.421875 17.753906 -14.046875 16.046875 -13.828125 C 14.347656 -13.609375 13.085938 -13.453125 12.265625 -13.359375 C 13.085938 -11.023438 14.328125 -9.257812 15.984375 -8.0625 C 17.640625 -6.875 19.367188 -6.28125 21.171875 -6.28125 Z M 11.234375 -19.421875 C 11.234375 -18.148438 11.359375 -16.957031 11.609375 -15.84375 C 16.128906 -17.25 19.347656 -19 21.265625 -21.09375 C 23.191406 -23.1875 24.15625 -25.378906 24.15625 -27.671875 C 24.15625 -30.097656 23.726562 -31.859375 22.875 -32.953125 C 22.03125 -34.054688 20.753906 -34.609375 19.046875 -34.609375 C 17.785156 -34.609375 16.554688 -34.109375 15.359375 -33.109375 C 14.171875 -32.109375 13.1875 -30.488281 12.40625 -28.25 C 11.625 -26.007812 11.234375 -23.066406 11.234375 -19.421875 Z M 11.234375 -19.421875" style="stroke:none"/></g></g><g style="fill:#ff5757;fill-opacity:1;"><g transform="translate(506.390408, 405.449532)"><path d="M 16.140625 0.734375 C 13.847656 0.734375 11.703125 0.394531 9.703125 -0.28125 C 7.710938 -0.96875 6.007812 -1.859375 4.59375 -2.953125 C 3.1875 -4.046875 2.25 -5.25 1.78125 -6.5625 C 1.320312 -7.882812 1.507812 -9.175781 2.34375 -10.4375 C 2.925781 -11.269531 3.785156 -12.085938 4.921875 -12.890625 C 6.066406 -13.691406 7.367188 -14.164062 8.828125 -14.3125 C 8.785156 -12.257812 9.203125 -10.453125 10.078125 -8.890625 C 10.953125 -7.335938 12.03125 -6.132812 13.3125 -5.28125 C 14.601562 -4.4375 15.785156 -4.015625 16.859375 -4.015625 C 18.367188 -4.015625 19.609375 -4.328125 20.578125 -4.953125 C 21.554688 -5.585938 22.046875 -6.492188 22.046875 -7.671875 C 22.046875 -8.640625 21.445312 -9.570312 20.25 -10.46875 C 19.0625 -11.375 17.445312 -12.347656 15.40625 -13.390625 C 13.363281 -14.441406 11.078125 -15.671875 8.546875 -17.078125 C 6.398438 -18.242188 4.671875 -19.628906 3.359375 -21.234375 C 2.046875 -22.847656 1.390625 -24.796875 1.390625 -27.078125 C 1.390625 -29.222656 2.019531 -31.242188 3.28125 -33.140625 C 4.550781 -35.035156 6.28125 -36.578125 8.46875 -37.765625 C 10.65625 -38.960938 13.113281 -39.5625 15.84375 -39.5625 C 18.320312 -39.5625 20.535156 -39.171875 22.484375 -38.390625 C 24.429688 -37.617188 26.023438 -36.644531 27.265625 -35.46875 C 28.503906 -34.300781 29.28125 -33.109375 29.59375 -31.890625 C 29.914062 -30.679688 29.6875 -29.640625 28.90625 -28.765625 C 28.519531 -28.328125 27.835938 -27.898438 26.859375 -27.484375 C 25.890625 -27.066406 24.84375 -26.722656 23.71875 -26.453125 C 22.601562 -26.191406 21.632812 -26.085938 20.8125 -26.140625 C 20.851562 -27.546875 20.691406 -28.929688 20.328125 -30.296875 C 19.960938 -31.660156 19.316406 -32.78125 18.390625 -33.65625 C 17.472656 -34.53125 16.207031 -34.96875 14.59375 -34.96875 C 13.1875 -34.96875 12.007812 -34.578125 11.0625 -33.796875 C 10.113281 -33.015625 9.640625 -32.039062 9.640625 -30.875 C 9.640625 -29.707031 10.269531 -28.578125 11.53125 -27.484375 C 12.800781 -26.390625 14.503906 -25.332031 16.640625 -24.3125 C 18.242188 -23.53125 19.894531 -22.75 21.59375 -21.96875 C 23.300781 -21.195312 24.875 -20.332031 26.3125 -19.375 C 27.75 -18.425781 28.90625 -17.269531 29.78125 -15.90625 C 30.65625 -14.550781 31.09375 -12.875 31.09375 -10.875 C 31.09375 -8.6875 30.382812 -6.71875 28.96875 -4.96875 C 27.5625 -3.21875 25.710938 -1.828125 23.421875 -0.796875 C 21.140625 0.222656 18.710938 0.734375 16.140625 0.734375 Z M 16.140625 0.734375" style="stroke:none"/></g></g><g style="fill:#ff5757;fill-opacity:1;"><g transform="translate(538.6547, 405.449532)"><path d="M 14.234375 -33.21875 L 14.234375 -10.359375 C 14.234375 -9.003906 14.304688 -7.609375 14.453125 -6.171875 C 14.597656 -4.734375 14.78125 -3.453125 15 -2.328125 C 15.21875 -1.210938 15.425781 -0.4375 15.625 0 L 9.421875 0 C 7.859375 0 6.539062 -0.535156 5.46875 -1.609375 C 4.40625 -2.679688 3.875 -3.992188 3.875 -5.546875 L 3.875 -28.390625 C 3.875 -29.753906 3.800781 -31.15625 3.65625 -32.59375 C 3.507812 -34.03125 3.335938 -35.304688 3.140625 -36.421875 C 2.941406 -37.546875 2.722656 -38.328125 2.484375 -38.765625 L 8.6875 -38.765625 C 10.238281 -38.765625 11.550781 -38.226562 12.625 -37.15625 C 13.695312 -36.082031 14.234375 -34.769531 14.234375 -33.21875 Z M 8.328125 -45.703125 L 3 -45.703125 C 4.257812 -48.617188 5.335938 -50.757812 6.234375 -52.125 C 7.140625 -53.488281 8.03125 -54.363281 8.90625 -54.75 C 9.78125 -55.132812 10.800781 -55.351562 11.96875 -55.40625 L 17.296875 -55.40625 C 16.035156 -52.4375 14.953125 -50.28125 14.046875 -48.9375 C 13.148438 -47.601562 12.265625 -46.738281 11.390625 -46.34375 C 10.515625 -45.957031 9.492188 -45.742188 8.328125 -45.703125 Z M 8.328125 -45.703125" style="stroke:none"/></g></g><g style="fill:#ff5757;fill-opacity:1;"><g transform="translate(556.830743, 405.449532)"><path d="M 33.4375 -38.765625 L 39.640625 -38.765625 C 39.441406 -38.328125 39.234375 -37.546875 39.015625 -36.421875 C 38.796875 -35.304688 38.613281 -34.03125 38.46875 -32.59375 C 38.320312 -31.15625 38.25 -29.753906 38.25 -28.390625 L 38.25 -4.15625 C 38.25 3.820312 36.726562 9.742188 33.6875 13.609375 C 30.644531 17.484375 26.179688 19.421875 20.296875 19.421875 C 19.953125 19.421875 19.234375 19.359375 18.140625 19.234375 C 17.046875 19.109375 15.789062 18.925781 14.375 18.6875 C 12.96875 18.445312 11.546875 18.109375 10.109375 17.671875 C 8.671875 17.234375 7.441406 16.644531 6.421875 15.90625 L 10.296875 9.703125 C 10.734375 8.972656 11.351562 8.507812 12.15625 8.3125 C 12.957031 8.125 13.722656 8.222656 14.453125 8.609375 C 15.910156 9.484375 17.378906 10.347656 18.859375 11.203125 C 20.347656 12.054688 21.75 12.484375 23.0625 12.484375 C 24.28125 12.484375 25.21875 12.101562 25.875 11.34375 C 26.53125 10.59375 27.003906 9.609375 27.296875 8.390625 C 27.585938 7.171875 27.757812 5.878906 27.8125 4.515625 C 27.863281 3.160156 27.890625 1.898438 27.890625 0.734375 L 27.890625 -27.015625 C 26.671875 -29.109375 25.207031 -30.53125 23.5 -31.28125 C 21.800781 -32.03125 20.125 -32.101562 18.46875 -31.5 C 16.8125 -30.894531 15.421875 -29.59375 14.296875 -27.59375 C 13.179688 -25.59375 12.625 -22.867188 12.625 -19.421875 C 12.625 -14.796875 13.242188 -11.457031 14.484375 -9.40625 C 15.734375 -7.363281 17.351562 -6.316406 19.34375 -6.265625 C 21.34375 -6.222656 23.507812 -6.910156 25.84375 -8.328125 C 25.5 -5.890625 24.425781 -3.769531 22.625 -1.96875 C 20.820312 -0.164062 18.195312 0.734375 14.75 0.734375 C 12.601562 0.734375 10.582031 0.0859375 8.6875 -1.203125 C 6.789062 -2.492188 5.242188 -4.585938 4.046875 -7.484375 C 2.859375 -10.378906 2.265625 -14.234375 2.265625 -19.046875 C 2.265625 -22.742188 2.90625 -26.140625 4.1875 -29.234375 C 5.476562 -32.328125 7.269531 -34.8125 9.5625 -36.6875 C 11.851562 -38.5625 14.503906 -39.5 17.515625 -39.5 C 19.566406 -39.5 21.550781 -38.890625 23.46875 -37.671875 C 25.394531 -36.453125 26.867188 -34.285156 27.890625 -31.171875 L 27.890625 -33.21875 C 27.890625 -34.769531 28.421875 -36.082031 29.484375 -37.15625 C 30.554688 -38.226562 31.875 -38.765625 33.4375 -38.765625 Z M 33.4375 -38.765625" style="stroke:none"/></g></g><g style="fill:#ff5757;fill-opacity:1;"><g transform="translate(598.730525, 405.449532)"><path d="M 39.859375 -10.359375 C 39.859375 -9.003906 39.929688 -7.609375 40.078125 -6.171875 C 40.222656 -4.734375 40.40625 -3.453125 40.625 -2.328125 C 40.84375 -1.210938 41.050781 -0.4375 41.25 0 L 35.046875 0 C 33.484375 0 32.164062 -0.535156 31.09375 -1.609375 C 30.019531 -2.679688 29.484375 -3.992188 29.484375 -5.546875 L 29.5625 -23.21875 C 29.5625 -26.375 29.160156 -28.617188 28.359375 -29.953125 C 27.554688 -31.296875 26.445312 -31.929688 25.03125 -31.859375 C 23.625 -31.785156 21.992188 -31.128906 20.140625 -29.890625 C 18.296875 -28.648438 16.328125 -26.984375 14.234375 -24.890625 L 14.234375 -10.359375 C 14.234375 -9.003906 14.304688 -7.609375 14.453125 -6.171875 C 14.597656 -4.734375 14.78125 -3.453125 15 -2.328125 C 15.21875 -1.210938 15.425781 -0.4375 15.625 0 L 9.421875 0 C 7.859375 0 6.539062 -0.535156 5.46875 -1.609375 C 4.40625 -2.679688 3.875 -3.992188 3.875 -5.546875 L 3.875 -28.390625 C 3.875 -29.753906 3.800781 -31.15625 3.65625 -32.59375 C 3.507812 -34.03125 3.335938 -35.304688 3.140625 -36.421875 C 2.941406 -37.546875 2.722656 -38.328125 2.484375 -38.765625 L 8.6875 -38.765625 C 10.238281 -38.765625 11.550781 -38.226562 12.625 -37.15625 C 13.695312 -36.082031 14.234375 -34.769531 14.234375 -33.21875 L 14.234375 -29.046875 C 16.765625 -31.390625 18.929688 -33.328125 20.734375 -34.859375 C 22.535156 -36.390625 24.210938 -37.546875 25.765625 -38.328125 C 27.328125 -39.109375 29.03125 -39.5 30.875 -39.5 C 33.3125 -39.5 35.160156 -39.070312 36.421875 -38.21875 C 37.691406 -37.363281 38.554688 -36.171875 39.015625 -34.640625 C 39.484375 -33.109375 39.738281 -31.28125 39.78125 -29.15625 C 39.832031 -27.039062 39.859375 -24.71875 39.859375 -22.1875 Z M 39.859375 -10.359375" style="stroke:none"/></g></g></g></svg>