<svg xmlns="http://www.w3.org/2000/svg" xmlns:xlink="http://www.w3.org/1999/xlink" width="500" zoomAndPan="magnify" viewBox="0 0 375 374.999991" height="500" preserveAspectRatio="xMidYMid meet" version="1.2"><defs><clipPath id="a65cd4e0ab"><path d="M 120 33 L 375 33 L 375 291 L 120 291 Z M 120 33 "/></clipPath><clipPath id="464bb28861"><path d="M -10.074219 96.640625 L 281.039062 -0.0507812 L 382.457031 305.296875 L 91.34375 401.988281 Z M -10.074219 96.640625 "/></clipPath><clipPath id="6954e64322"><path d="M -10.074219 96.640625 L 281.039062 -0.0507812 L 382.457031 305.296875 L 91.34375 401.988281 Z M -10.074219 96.640625 "/></clipPath><clipPath id="2e928ab745"><path d="M 167 87 L 202 87 L 202 225 L 167 225 Z M 167 87 "/></clipPath><clipPath id="d14393cca5"><path d="M -10.074219 96.640625 L 281.039062 -0.0507812 L 382.457031 305.296875 L 91.34375 401.988281 Z M -10.074219 96.640625 "/></clipPath><clipPath id="05a078d65f"><path d="M -10.074219 96.640625 L 281.039062 -0.0507812 L 382.457031 305.296875 L 91.34375 401.988281 Z M -10.074219 96.640625 "/></clipPath><clipPath id="abfaa1b28f"><path d="M 150 124 L 168 124 L 168 213 L 150 213 Z M 150 124 "/></clipPath><clipPath id="1bca6da445"><path d="M -10.074219 96.640625 L 281.039062 -0.0507812 L 382.457031 305.296875 L 91.34375 401.988281 Z M -10.074219 96.640625 "/></clipPath><clipPath id="1ed8776ffc"><path d="M -10.074219 96.640625 L 281.039062 -0.0507812 L 382.457031 305.296875 L 91.34375 401.988281 Z M -10.074219 96.640625 "/></clipPath><clipPath id="6f812d2d33"><path d="M 182 216 L 279 216 L 279 252 L 182 252 Z M 182 216 "/></clipPath><clipPath id="487b695de5"><path d="M -10.074219 96.640625 L 281.039062 -0.0507812 L 382.457031 305.296875 L 91.34375 401.988281 Z M -10.074219 96.640625 "/></clipPath><clipPath id="272181ac8f"><path d="M -10.074219 96.640625 L 281.039062 -0.0507812 L 382.457031 305.296875 L 91.34375 401.988281 Z M -10.074219 96.640625 "/></clipPath><clipPath id="c9b89bd6e0"><path d="M 187 250 L 268 250 L 268 272 L 187 272 Z M 187 250 "/></clipPath><clipPath id="dd4e6391b4"><path d="M -10.074219 96.640625 L 281.039062 -0.0507812 L 382.457031 305.296875 L 91.34375 401.988281 Z M -10.074219 96.640625 "/></clipPath><clipPath id="6a1578f513"><path d="M -10.074219 96.640625 L 281.039062 -0.0507812 L 382.457031 305.296875 L 91.34375 401.988281 Z M -10.074219 96.640625 "/></clipPath><clipPath id="d7d86e0389"><path d="M 99 189 L 190 189 L 190 302 L 99 302 Z M 99 189 "/></clipPath><clipPath id="a4b46c8978"><path d="M -10.074219 96.640625 L 281.039062 -0.0507812 L 382.457031 305.296875 L 91.34375 401.988281 Z M -10.074219 96.640625 "/></clipPath><clipPath id="2d34d1fe9e"><path d="M -10.074219 96.640625 L 281.039062 -0.0507812 L 382.457031 305.296875 L 91.34375 401.988281 Z M -10.074219 96.640625 "/></clipPath><clipPath id="2c7841f5ab"><path d="M 84 171 L 109 171 L 109 197 L 84 197 Z M 84 171 "/></clipPath><clipPath id="30bdcd8d4f"><path d="M -10.074219 96.640625 L 281.039062 -0.0507812 L 382.457031 305.296875 L 91.34375 401.988281 Z M -10.074219 96.640625 "/></clipPath><clipPath id="bfb7c6a45e"><path d="M -10.074219 96.640625 L 281.039062 -0.0507812 L 382.457031 305.296875 L 91.34375 401.988281 Z M -10.074219 96.640625 "/></clipPath><clipPath id="5ff091197d"><path d="M 1 117 L 80 117 L 80 172 L 1 172 Z M 1 117 "/></clipPath><clipPath id="82092fb7f1"><path d="M -10.074219 96.640625 L 281.039062 -0.0507812 L 382.457031 305.296875 L 91.34375 401.988281 Z M -10.074219 96.640625 "/></clipPath><clipPath id="a1d6ca2ef1"><path d="M -10.074219 96.640625 L 281.039062 -0.0507812 L 382.457031 305.296875 L 91.34375 401.988281 Z M -10.074219 96.640625 "/></clipPath><clipPath id="46d02df9d4"><path d="M 27 96 L 90 96 L 90 169 L 27 169 Z M 27 96 "/></clipPath><clipPath id="74f56f7464"><path d="M -10.074219 96.640625 L 281.039062 -0.0507812 L 382.457031 305.296875 L 91.34375 401.988281 Z M -10.074219 96.640625 "/></clipPath><clipPath id="f1477a354c"><path d="M -10.074219 96.640625 L 281.039062 -0.0507812 L 382.457031 305.296875 L 91.34375 401.988281 Z M -10.074219 96.640625 "/></clipPath><clipPath id="0455b9ac13"><path d="M 118 181 L 119 181 L 119 184 L 118 184 Z M 118 181 "/></clipPath><clipPath id="8f49f720e9"><path d="M -10.074219 96.640625 L 281.039062 -0.0507812 L 382.457031 305.296875 L 91.34375 401.988281 Z M -10.074219 96.640625 "/></clipPath><clipPath id="15462cc6b6"><path d="M -10.074219 96.640625 L 281.039062 -0.0507812 L 382.457031 305.296875 L 91.34375 401.988281 Z M -10.074219 96.640625 "/></clipPath><clipPath id="9fab3561f3"><path d="M 109 75 L 145 75 L 145 172 L 109 172 Z M 109 75 "/></clipPath><clipPath id="3c8798f93f"><path d="M -10.074219 96.640625 L 281.039062 -0.0507812 L 382.457031 305.296875 L 91.34375 401.988281 Z M -10.074219 96.640625 "/></clipPath><clipPath id="8792085703"><path d="M -10.074219 96.640625 L 281.039062 -0.0507812 L 382.457031 305.296875 L 91.34375 401.988281 Z M -10.074219 96.640625 "/></clipPath><clipPath id="e3a8755736"><path d="M 245 284 L 322 284 L 322 326 L 245 326 Z M 245 284 "/></clipPath><clipPath id="7911247ddd"><path d="M -10.074219 96.640625 L 281.039062 -0.0507812 L 382.457031 305.296875 L 91.34375 401.988281 Z M -10.074219 96.640625 "/></clipPath><clipPath id="77af581e47"><path d="M -10.074219 96.640625 L 281.039062 -0.0507812 L 382.457031 305.296875 L 91.34375 401.988281 Z M -10.074219 96.640625 "/></clipPath></defs><g id="e9ebdd3238"><g clip-rule="nonzero" clip-path="url(#a65cd4e0ab)"><g clip-rule="nonzero" clip-path="url(#464bb28861)"><g clip-rule="nonzero" clip-path="url(#6954e64322)"><path style=" stroke:none;fill-rule:nonzero;fill:#ff5757;fill-opacity:1;" d="M 364.429688 278.421875 C 360.613281 277.585938 357.011719 276.117188 353.285156 275 C 349.539062 273.929688 346.023438 272.316406 342.433594 270.871094 C 338.796875 269.515625 335.382812 267.71875 331.945312 265.972656 C 328.433594 264.351562 325.195312 262.269531 321.894531 260.289062 C 318.519531 258.421875 315.53125 255.980469 312.351562 253.820312 C 309.25 251.550781 306.335938 249.027344 303.378906 246.574219 C 300.59375 243.90625 297.652344 241.417969 295.046875 238.546875 C 292.320312 235.8125 289.769531 232.871094 287.222656 229.921875 C 284.722656 226.910156 282.253906 223.890625 279.84375 220.710938 L 272.449219 211.046875 L 270.523438 208.574219 L 268.207031 205.863281 C 266.589844 203.890625 265.222656 202.730469 263.695312 201.191406 C 263.695312 201.191406 263.332031 200.867188 263.285156 200.832031 L 263.085938 200.6875 L 262.691406 200.390625 L 261.898438 199.8125 L 260.296875 198.664062 C 259.25 197.839844 258.070312 197.355469 256.933594 196.753906 C 254.660156 195.492188 252.269531 194.835938 249.914062 194.117188 C 245.171875 192.871094 240.511719 192.601562 235.976562 192.652344 C 231.429688 192.71875 227.050781 193.320312 222.753906 194.140625 C 222.535156 194.183594 222.328125 194.234375 222.113281 194.277344 C 222.847656 191.308594 223.695312 188.371094 224.144531 185.332031 L 225.8125 174.710938 L 226.628906 169.402344 L 226.996094 164.023438 L 227.710938 153.269531 C 227.722656 149.671875 227.585938 146.070312 227.527344 142.46875 L 227.402344 137.070312 L 226.820312 131.6875 C 226.375 128.109375 226.167969 124.5 225.511719 120.949219 L 223.441406 110.3125 C 222.65625 106.789062 221.554688 103.335938 220.621094 99.84375 C 219.761719 96.328125 218.316406 92.992188 217.140625 89.574219 C 216 86.132812 214.453125 82.855469 212.988281 79.546875 C 211.601562 76.199219 209.832031 73.027344 208.152344 69.816406 C 206.554688 66.5625 204.476562 63.554688 202.652344 60.417969 C 200.601562 57.40625 198.640625 54.347656 196.355469 51.460938 C 194.128906 48.472656 191.875 45.816406 188.976562 42.785156 L 180.085938 33.480469 L 177.152344 46.574219 C 176.503906 49.476562 175.964844 52.402344 175.242188 55.289062 C 174.382812 58.140625 173.753906 61.058594 172.726562 63.863281 C 170.835938 69.519531 168.664062 75.101562 166.023438 80.492188 C 164.816406 83.234375 163.289062 85.835938 161.921875 88.511719 C 160.429688 91.125 158.902344 93.722656 157.203125 96.214844 C 155.53125 98.726562 153.898438 101.257812 152.351562 103.875 C 150.855469 106.519531 149.167969 109.0625 147.53125 111.644531 C 144.1875 116.769531 140.566406 121.75 136.792969 126.703125 C 134.894531 129.226562 132.96875 131.570312 131.003906 134.273438 C 128.804688 137.277344 127.394531 140.429688 126.179688 143.5625 C 123.878906 149.855469 122.648438 156.191406 121.816406 162.53125 C 121.03125 168.871094 120.664062 175.210938 120.660156 181.523438 C 121.84375 175.332031 123.386719 169.226562 125.296875 163.296875 C 127.230469 157.398438 129.363281 151.542969 132.328125 146.414062 C 133.824219 143.886719 135.476562 141.496094 137.351562 139.699219 L 144.097656 133.199219 C 148.664062 128.753906 153.183594 124.152344 157.488281 119.308594 C 159.609375 116.859375 161.785156 114.4375 163.796875 111.871094 C 165.898438 109.371094 167.679688 106.628906 169.363281 103.828125 C 172.636719 98.175781 175.921875 92.503906 178.707031 86.550781 C 181.589844 80.65625 183.996094 74.503906 186.078125 68.246094 C 186.667969 66.625 187.148438 64.96875 187.605469 63.300781 C 188.691406 64.859375 189.753906 66.445312 190.828125 68.011719 C 192.46875 70.863281 194.363281 73.558594 195.808594 76.527344 C 197.328125 79.449219 198.949219 82.320312 200.203125 85.378906 C 201.535156 88.394531 202.957031 91.375 203.988281 94.515625 C 205.050781 97.640625 206.394531 100.671875 207.164062 103.894531 C 208.007812 107.085938 209.03125 110.234375 209.746094 113.460938 L 211.640625 123.199219 C 212.246094 126.449219 212.417969 129.773438 212.835938 133.054688 L 213.378906 137.992188 L 213.480469 142.96875 C 213.53125 146.285156 213.667969 149.601562 213.660156 152.917969 L 212.988281 162.875 L 212.660156 167.851562 L 211.890625 172.796875 L 210.339844 182.683594 C 209.867188 185.984375 208.8125 189.195312 208.082031 192.453125 L 205.664062 202.203125 L 202.445312 215.210938 L 214.886719 210.765625 C 218.027344 209.640625 221.886719 208.632812 225.449219 207.933594 C 229.082031 207.238281 232.742188 206.742188 236.285156 206.703125 C 239.8125 206.664062 243.289062 206.886719 246.378906 207.714844 C 247.859375 208.203125 249.429688 208.582031 250.671875 209.335938 C 251.3125 209.6875 252.050781 209.925781 252.570312 210.402344 L 253.429688 211.027344 L 253.867188 211.328125 C 253.867188 211.328125 254.085938 211.476562 254.171875 211.535156 C 255.523438 212.878906 257.117188 214.316406 257.96875 215.488281 L 259.582031 217.386719 L 261.378906 219.699219 L 268.710938 229.289062 C 271.183594 232.546875 273.828125 235.789062 276.488281 238.992188 C 279.222656 242.164062 281.972656 245.328125 284.949219 248.324219 C 287.789062 251.433594 291.015625 254.195312 294.074219 257.105469 C 297.320312 259.816406 300.539062 262.585938 303.949219 265.089844 C 304.828125 265.6875 305.683594 266.316406 306.546875 266.9375 L 297.628906 264.785156 C 293.78125 263.925781 289.753906 262.925781 285.515625 262.460938 C 283.390625 262.230469 281.226562 262.191406 279.050781 262.359375 L 278.238281 262.414062 L 277.394531 262.484375 L 275.859375 262.660156 C 274.664062 262.804688 273.605469 262.972656 272.472656 263.203125 C 267.96875 264.042969 263.453125 266.011719 259.898438 268.289062 C 256.238281 270.621094 253.464844 272.839844 250.347656 274.882812 C 247.300781 276.921875 244.203125 278.800781 241.019531 280.324219 C 237.675781 281.929688 234.523438 283.085938 230.9375 283.957031 C 227.4375 284.800781 223.808594 285.261719 220.132812 285.3125 C 212.777344 285.484375 205.242188 284.003906 198.136719 281.152344 C 204.601562 285.234375 211.964844 288.234375 219.835938 289.480469 C 223.765625 290.074219 227.804688 290.238281 231.839844 289.945312 C 235.792969 289.683594 240.046875 288.863281 243.824219 287.75 C 247.800781 286.621094 251.507812 285.007812 255.105469 283.320312 C 258.667969 281.671875 262.242188 279.644531 265.273438 278.320312 C 268.410156 276.957031 271.179688 276.273438 274.257812 276.152344 C 275.011719 276.113281 275.855469 276.113281 276.5625 276.140625 L 277.882812 276.183594 C 277.882812 276.183594 278.242188 276.199219 278.3125 276.210938 L 278.46875 276.222656 L 279.085938 276.277344 L 284.039062 276.753906 C 287.382812 277.09375 290.851562 277.574219 294.425781 278.472656 C 294.425781 278.472656 305.605469 281.171875 305.609375 281.171875 C 316.757812 283.859375 329.070312 287.414062 340.59375 287.019531 C 346.292969 286.820312 351.953125 286.277344 357.5625 285.226562 C 360.363281 284.703125 363.144531 284.066406 365.894531 283.324219 C 367.554688 282.875 372.546875 280.316406 374.054688 280.773438 Z M 364.429688 278.421875 "/></g></g></g><g clip-rule="nonzero" clip-path="url(#2e928ab745)"><g clip-rule="nonzero" clip-path="url(#d14393cca5)"><g clip-rule="nonzero" clip-path="url(#05a078d65f)"><path style=" stroke:none;fill-rule:nonzero;fill:#ff5757;fill-opacity:1;" d="M 167.882812 224.066406 C 167.882812 224.066406 169.367188 222.277344 171.710938 219.0625 C 172.90625 217.507812 174.195312 215.480469 175.714844 213.226562 C 177.144531 210.902344 178.671875 208.257812 180.199219 205.320312 C 183.164062 199.394531 186.085938 192.292969 188.148438 184.371094 C 189.265625 180.4375 190.015625 176.273438 190.726562 172.046875 C 191.445312 167.792969 191.878906 163.527344 192.101562 159.054688 C 192.390625 154.757812 192.527344 150.289062 192.445312 145.949219 C 192.324219 141.59375 192.316406 137.277344 192.042969 133.09375 C 191.773438 128.910156 191.511719 124.867188 191.261719 121.035156 C 190.855469 117.144531 190.589844 113.449219 190.355469 110.039062 C 190.082031 106.636719 189.925781 103.492188 189.800781 100.71875 C 189.660156 97.761719 189.945312 95.34375 190.09375 93.339844 C 190.480469 89.367188 190.507812 87.070312 190.507812 87.070312 C 190.507812 87.070312 191.265625 89.273438 191.957031 93.253906 C 192.3125 95.222656 192.710938 97.644531 193.34375 100.171875 C 194.074219 102.875 194.890625 105.902344 195.675781 109.234375 C 196.496094 112.558594 197.375 116.160156 198.179688 119.988281 C 198.988281 123.957031 199.738281 128 200.261719 132.328125 C 200.785156 136.628906 201.359375 141.105469 201.488281 145.695312 C 201.679688 150.300781 201.675781 154.925781 201.445312 159.703125 C 201.105469 164.304688 200.511719 169.085938 199.625 173.632812 C 198.8125 178.222656 197.460938 182.632812 196.003906 186.820312 C 193.097656 195.21875 188.957031 202.515625 184.738281 208.164062 C 182.660156 211.015625 180.480469 213.40625 178.503906 215.453125 C 176.488281 217.464844 174.636719 219.109375 173.023438 220.371094 C 171.488281 221.707031 170.121094 222.496094 169.246094 223.132812 C 168.359375 223.742188 167.882812 224.066406 167.882812 224.066406 Z M 167.882812 224.066406 "/></g></g></g><g clip-rule="nonzero" clip-path="url(#abfaa1b28f)"><g clip-rule="nonzero" clip-path="url(#1bca6da445)"><g clip-rule="nonzero" clip-path="url(#1ed8776ffc)"><path style=" stroke:none;fill-rule:nonzero;fill:#ff5757;fill-opacity:1;" d="M 160.101562 212.222656 C 160.101562 212.222656 159.285156 211.023438 158.167969 208.746094 C 157.132812 206.445312 155.53125 203.148438 154.328125 198.945312 C 153.617188 196.871094 153.140625 194.550781 152.554688 192.109375 C 152.175781 189.636719 151.53125 187.039062 151.375 184.296875 C 151.097656 181.566406 150.839844 178.738281 150.910156 175.847656 C 150.804688 172.960938 151.101562 170.039062 151.285156 167.109375 C 151.5 164.183594 152.15625 161.3125 152.570312 158.460938 C 153.097656 155.625 153.984375 152.917969 154.648438 150.261719 C 155.417969 147.632812 156.46875 145.1875 157.332031 142.839844 C 158.113281 140.460938 159.375 138.417969 160.304688 136.453125 C 161.296875 134.515625 162.125 132.703125 163.167969 131.253906 C 164.132812 129.777344 164.972656 128.488281 165.667969 127.429688 C 167.0625 125.324219 167.914062 124.164062 167.914062 124.164062 C 167.914062 124.164062 167.421875 125.535156 166.46875 127.863281 C 165.988281 129.015625 165.40625 130.417969 164.734375 132.023438 C 164 133.59375 163.527344 135.523438 162.777344 137.507812 C 162.144531 139.542969 161.191406 141.636719 160.628906 144.007812 C 160.015625 146.355469 159.261719 148.792969 158.628906 151.34375 C 158.105469 153.917969 157.566406 156.578125 157.019531 159.285156 C 156.679688 162.019531 156.105469 164.769531 155.945312 167.5625 C 155.722656 170.347656 155.378906 173.132812 155.429688 175.890625 C 155.339844 178.644531 155.332031 181.355469 155.480469 183.984375 C 155.515625 186.621094 155.859375 189.144531 156 191.5625 C 156.375 193.949219 156.523438 196.253906 156.9375 198.332031 C 157.59375 202.527344 158.367188 206.007812 159.015625 208.421875 C 159.65625 210.84375 160.101562 212.222656 160.101562 212.222656 Z M 160.101562 212.222656 "/></g></g></g><g clip-rule="nonzero" clip-path="url(#6f812d2d33)"><g clip-rule="nonzero" clip-path="url(#487b695de5)"><g clip-rule="nonzero" clip-path="url(#272181ac8f)"><path style=" stroke:none;fill-rule:nonzero;fill:#ff5757;fill-opacity:1;" d="M 182.234375 246.222656 C 182.234375 246.222656 186.945312 240.667969 195.328125 233.621094 C 199.535156 230.125 204.675781 226.277344 210.730469 222.878906 C 213.753906 221.183594 217.03125 219.625 220.535156 218.371094 C 224.113281 217.324219 227.859375 216.238281 231.917969 216.476562 L 233.417969 216.519531 C 234.222656 216.582031 234.40625 216.683594 234.929688 216.761719 L 237.597656 217.285156 C 239.503906 217.890625 241.476562 218.441406 243.132812 219.289062 C 246.625 220.78125 249.628906 222.9375 252.382812 225.078125 C 255.167969 227.210938 257.527344 229.585938 259.75 231.8125 C 261.953125 234.054688 263.921875 236.261719 265.714844 238.296875 C 269.316406 242.347656 272.222656 245.765625 274.554688 247.867188 C 275.726562 248.90625 276.632812 249.757812 277.335938 250.226562 C 278.015625 250.742188 278.375 251.015625 278.375 251.015625 C 278.375 251.015625 277.96875 250.816406 277.203125 250.441406 C 276.417969 250.09375 275.3125 249.488281 273.988281 248.582031 C 271.359375 246.761719 267.777344 243.875 263.800781 240.1875 C 259.78125 236.546875 255.214844 232.214844 249.898438 228.371094 C 247.246094 226.457031 244.363281 224.722656 241.300781 223.425781 C 239.769531 222.667969 238.257812 222.324219 236.746094 221.8125 L 234.101562 221.335938 C 233.734375 221.285156 233.039062 221.121094 232.941406 221.164062 L 231.734375 221.15625 C 228.535156 220.878906 225.171875 221.777344 221.953125 222.664062 C 218.753906 223.792969 215.59375 225.003906 212.648438 226.519531 C 206.726562 229.46875 201.421875 232.808594 196.933594 235.769531 C 192.46875 238.769531 188.746094 241.335938 186.238281 243.257812 C 183.6875 245.144531 182.234375 246.222656 182.234375 246.222656 Z M 182.234375 246.222656 "/></g></g></g><g clip-rule="nonzero" clip-path="url(#c9b89bd6e0)"><g clip-rule="nonzero" clip-path="url(#dd4e6391b4)"><g clip-rule="nonzero" clip-path="url(#6a1578f513)"><path style=" stroke:none;fill-rule:nonzero;fill:#ff5757;fill-opacity:1;" d="M 267.914062 250.207031 C 267.914062 250.207031 263.910156 254.207031 256.914062 259.03125 C 253.414062 261.425781 249.152344 264 244.308594 266.285156 C 241.867188 267.378906 239.328125 268.519531 236.625 269.394531 C 233.878906 270.246094 231.234375 271.125 228.144531 271.519531 C 226.84375 271.761719 225.25 271.78125 223.609375 271.710938 C 221.980469 271.730469 220.5625 271.3125 219.050781 271.101562 C 216.160156 270.332031 213.425781 269.214844 211.074219 267.800781 C 206.273438 265.066406 202.59375 261.726562 199.375 259.109375 C 197.753906 257.8125 196.304688 256.589844 194.929688 255.664062 C 193.578125 254.683594 192.300781 253.996094 191.203125 253.542969 C 190.105469 253.058594 189.207031 252.765625 188.558594 252.675781 C 187.914062 252.527344 187.570312 252.449219 187.570312 252.449219 C 187.570312 252.449219 187.921875 252.4375 188.578125 252.421875 C 189.25 252.367188 190.246094 252.355469 191.476562 252.671875 C 192.707031 252.921875 194.203125 253.398438 195.78125 254.140625 C 197.410156 254.828125 199.132812 255.792969 200.929688 256.917969 C 204.570312 259.101562 208.53125 261.980469 213.011719 264.15625 C 215.214844 265.359375 217.640625 266.027344 220.050781 266.691406 C 221.265625 266.8125 222.5625 267.175781 223.722656 267.105469 C 224.871094 267.144531 226.070312 267.160156 227.53125 266.878906 C 230 266.636719 232.730469 265.828125 235.242188 265.09375 C 237.78125 264.292969 240.285156 263.445312 242.671875 262.507812 C 247.449219 260.617188 251.824219 258.554688 255.558594 256.71875 C 259.273438 254.847656 262.40625 253.289062 264.53125 252.070312 C 266.683594 250.886719 267.914062 250.207031 267.914062 250.207031 Z M 267.914062 250.207031 "/></g></g></g><g clip-rule="nonzero" clip-path="url(#d7d86e0389)"><g clip-rule="nonzero" clip-path="url(#a4b46c8978)"><g clip-rule="nonzero" clip-path="url(#2d34d1fe9e)"><path style=" stroke:none;fill-rule:nonzero;fill:#ff5757;fill-opacity:1;" d="M 103.371094 192.355469 C 101.179688 192.792969 87.238281 197.53125 128.792969 244.152344 C 173.222656 294 182.167969 299.738281 189.527344 301.238281 C 189.527344 301.238281 189.601562 301.28125 189.601562 301.253906 C 189.625 301.261719 189.601562 301.175781 189.601562 301.175781 C 189.832031 293.671875 186.296875 283.648438 147.960938 228.972656 C 112.105469 177.839844 104.300781 190.324219 103.371094 192.355469 Z M 103.371094 192.355469 "/></g></g></g><g clip-rule="nonzero" clip-path="url(#2c7841f5ab)"><g clip-rule="nonzero" clip-path="url(#30bdcd8d4f)"><g clip-rule="nonzero" clip-path="url(#bfb7c6a45e)"><path style=" stroke:none;fill-rule:nonzero;fill:#ff5757;fill-opacity:1;" d="M 88.742188 173.882812 C 84.214844 177.46875 83.441406 184.109375 87.027344 188.640625 L 90.035156 192.4375 C 93.625 196.964844 100.265625 197.738281 104.792969 194.152344 C 109.324219 190.5625 110.097656 183.925781 106.507812 179.394531 L 103.5 175.597656 C 99.914062 171.066406 93.273438 170.292969 88.742188 173.882812 Z M 88.742188 173.882812 "/></g></g></g><g clip-rule="nonzero" clip-path="url(#5ff091197d)"><g clip-rule="nonzero" clip-path="url(#82092fb7f1)"><g clip-rule="nonzero" clip-path="url(#a1d6ca2ef1)"><path style=" stroke:none;fill-rule:nonzero;fill:#ff5757;fill-opacity:1;" d="M 79.410156 171.46875 C 79.410156 171.46875 74.390625 166.363281 66.859375 158.707031 C 63.0625 154.929688 58.636719 150.542969 53.804688 145.96875 C 51.394531 143.671875 48.824219 141.398438 46.230469 139.082031 C 43.609375 136.800781 40.941406 134.484375 38.128906 132.394531 C 36.765625 131.285156 35.375 130.226562 33.9375 129.261719 C 32.523438 128.25 31.109375 127.253906 29.632812 126.429688 C 28.179688 125.550781 26.746094 124.667969 25.261719 124.011719 L 23.070312 122.9375 L 20.800781 122.136719 C 17.636719 121.019531 14.953125 120.566406 12.164062 120.769531 C 9.480469 120.984375 7.171875 122.132812 5.714844 123.964844 C 4.246094 125.78125 3.570312 128.0625 3.441406 130.089844 C 3.28125 132.128906 3.566406 133.984375 4.101562 135.386719 C 4.574219 136.820312 5.21875 137.878906 5.738281 138.507812 C 6.28125 139.148438 6.570312 139.488281 6.570312 139.488281 C 6.570312 139.488281 6.214844 139.210938 5.554688 138.683594 C 5.1875 138.441406 4.851562 138.039062 4.457031 137.550781 C 4.011719 137.09375 3.625 136.484375 3.265625 135.753906 C 2.476562 134.332031 1.859375 132.398438 1.695312 130.085938 C 1.503906 127.796875 1.832031 124.984375 3.523438 122.40625 C 5.117188 119.789062 8.253906 117.789062 11.667969 117.304688 C 14.964844 116.710938 18.875 117.179688 22.046875 118.207031 L 24.597656 118.980469 L 27.082031 120.050781 C 28.800781 120.707031 30.371094 121.601562 31.9375 122.539062 C 33.554688 123.410156 35.058594 124.4375 36.558594 125.476562 C 38.09375 126.480469 39.570312 127.558594 40.996094 128.695312 C 43.894531 130.917969 46.597656 133.339844 49.25 135.71875 C 51.898438 138.113281 54.339844 140.625 56.699219 143.042969 C 61.375 147.933594 65.484375 152.714844 68.851562 156.925781 C 72.234375 161.128906 74.8125 164.820312 76.65625 167.359375 C 78.464844 169.9375 79.410156 171.46875 79.410156 171.46875 Z M 79.410156 171.46875 "/></g></g></g><g clip-rule="nonzero" clip-path="url(#46d02df9d4)"><g clip-rule="nonzero" clip-path="url(#74f56f7464)"><g clip-rule="nonzero" clip-path="url(#f1477a354c)"><path style=" stroke:none;fill-rule:nonzero;fill:#ff5757;fill-opacity:1;" d="M 89.9375 168.15625 C 89.9375 168.15625 86.671875 161.785156 81.773438 152.226562 C 79.285156 147.484375 76.375 141.976562 73.132812 136.164062 C 71.519531 133.253906 69.746094 130.316406 67.964844 127.328125 C 66.148438 124.367188 64.292969 121.359375 62.234375 118.523438 C 61.265625 117.058594 60.253906 115.632812 59.171875 114.28125 C 58.128906 112.890625 57.078125 111.519531 55.914062 110.292969 C 54.789062 109.015625 53.683594 107.746094 52.464844 106.675781 L 50.695312 104.996094 L 48.769531 103.550781 C 46.085938 101.539062 43.65625 100.300781 40.9375 99.660156 C 38.308594 99.0625 35.765625 99.472656 33.832031 100.78125 C 31.882812 102.074219 30.558594 104.050781 29.824219 105.945312 C 29.066406 107.84375 28.78125 109.699219 28.871094 111.199219 C 28.894531 112.707031 29.191406 113.910156 29.5 114.667969 C 29.824219 115.441406 30 115.851562 30 115.851562 C 30 115.851562 29.746094 115.480469 29.269531 114.777344 C 28.992188 114.4375 28.792969 113.953125 28.5625 113.371094 C 28.273438 112.800781 28.085938 112.105469 27.964844 111.300781 C 27.636719 109.703125 27.628906 107.675781 28.160156 105.421875 C 28.664062 103.179688 29.820312 100.59375 32.203125 98.640625 C 34.507812 96.617188 38.101562 95.648438 41.503906 96.207031 C 44.824219 96.628906 48.414062 98.242188 51.136719 100.171875 L 53.335938 101.675781 L 55.390625 103.4375 C 56.832031 104.578125 58.0625 105.90625 59.277344 107.265625 C 60.558594 108.582031 61.6875 110.007812 62.808594 111.453125 C 63.972656 112.867188 65.058594 114.339844 66.078125 115.847656 C 68.179688 118.839844 70.035156 121.957031 71.855469 125.023438 C 73.664062 128.09375 75.242188 131.222656 76.769531 134.238281 C 79.769531 140.304688 82.257812 146.09375 84.214844 151.121094 C 86.183594 156.140625 87.539062 160.4375 88.539062 163.410156 C 89.492188 166.414062 89.9375 168.15625 89.9375 168.15625 Z M 89.9375 168.15625 "/></g></g></g><g clip-rule="nonzero" clip-path="url(#0455b9ac13)"><g clip-rule="nonzero" clip-path="url(#8f49f720e9)"><g clip-rule="nonzero" clip-path="url(#15462cc6b6)"><path style=" stroke:none;fill-rule:nonzero;fill:#ff5757;fill-opacity:1;" d="M 118.050781 181.9375 C 118.25 182.382812 118.421875 182.824219 118.625 183.265625 C 118.503906 182.824219 118.421875 182.402344 118.308594 181.960938 Z M 118.050781 181.9375 "/></g></g></g><g clip-rule="nonzero" clip-path="url(#9fab3561f3)"><g clip-rule="nonzero" clip-path="url(#3c8798f93f)"><g clip-rule="nonzero" clip-path="url(#8792085703)"><path style=" stroke:none;fill-rule:nonzero;fill:#ff5757;fill-opacity:1;" d="M 114.839844 161.671875 C 114.902344 161.199219 114.980469 160.777344 115.046875 160.316406 C 115.066406 159.378906 115.125 158.464844 115.238281 157.589844 C 115.394531 156.511719 115.65625 155.519531 115.980469 154.605469 C 116.914062 149.65625 118.078125 145.25 119.578125 141.148438 C 120.890625 137.765625 122.554688 133.921875 125.332031 130.121094 C 126.535156 128.472656 127.730469 126.933594 128.917969 125.410156 C 128.988281 125.320312 129.058594 125.226562 129.128906 125.136719 C 129.472656 122.273438 129.773438 119.386719 129.804688 116.347656 C 129.945312 112.125 129.628906 107.660156 129.027344 103.085938 C 128.910156 101.90625 128.695312 100.6875 128.460938 99.457031 C 129.84375 100.753906 131.214844 102.0625 132.59375 103.363281 C 134.859375 105.691406 137.261719 107.929688 139.417969 110.332031 C 139.519531 110.445312 139.625 110.558594 139.730469 110.671875 C 140.386719 109.703125 141.03125 108.746094 141.644531 107.804688 L 142.773438 106.035156 C 143.234375 105.316406 143.660156 104.582031 144.113281 103.859375 C 142.421875 102.132812 140.691406 100.421875 139.003906 98.691406 C 136.367188 96.199219 133.785156 93.675781 131.015625 91.257812 C 128.253906 88.761719 125.585938 86.519531 122.292969 83.929688 L 112.1875 75.984375 L 114.542969 85.695312 C 115.066406 87.847656 115.683594 90.027344 116.140625 92.160156 C 116.488281 94.257812 117.027344 96.421875 117.226562 98.464844 C 117.765625 102.601562 118.0625 106.652344 117.929688 110.511719 C 117.964844 112.488281 117.710938 114.328125 117.601562 116.238281 C 117.375 118.089844 117.113281 119.925781 116.683594 121.664062 C 116.285156 123.425781 115.921875 125.199219 115.652344 127.050781 C 115.433594 128.921875 115.03125 130.703125 114.683594 132.515625 C 113.917969 136.105469 112.886719 139.5625 111.730469 142.980469 C 111.160156 144.722656 110.507812 146.328125 109.949219 148.203125 C 109.316406 150.285156 109.339844 152.554688 109.511719 154.828125 C 109.957031 159.410156 111.238281 164.128906 112.832031 168.886719 C 113.164062 169.859375 113.570312 170.839844 113.925781 171.816406 C 114.132812 168.394531 114.429688 165.003906 114.839844 161.671875 Z M 114.839844 161.671875 "/></g></g></g><g clip-rule="nonzero" clip-path="url(#e3a8755736)"><g clip-rule="nonzero" clip-path="url(#7911247ddd)"><g clip-rule="nonzero" clip-path="url(#77af581e47)"><path style=" stroke:none;fill-rule:nonzero;fill:#ff5757;fill-opacity:1;" d="M 305.875 315.617188 C 302.960938 313.828125 300.074219 311.675781 297.183594 309.632812 C 294.277344 307.652344 291.417969 305.382812 288.554688 303.144531 C 285.667969 300.984375 282.859375 298.535156 280.035156 296.148438 C 277.183594 293.832031 274.460938 291.160156 271.671875 288.667969 C 270.363281 287.449219 269.089844 286.15625 267.800781 284.894531 C 266.382812 285.527344 264.839844 286.316406 263.226562 287.136719 C 262.566406 287.476562 261.875 287.800781 261.199219 288.144531 C 263.652344 290.578125 266.097656 293.035156 268.605469 295.363281 C 269.375 296.054688 270.136719 296.765625 270.902344 297.46875 L 264.074219 293.527344 C 261.957031 292.335938 259.746094 291.105469 257.515625 289.949219 C 254.171875 291.507812 250.078125 293.296875 245.730469 294.511719 C 245.730469 294.511719 248.351562 295.828125 250.488281 296.511719 C 251.011719 296.671875 251.601562 296.882812 252.109375 297.085938 L 253.050781 297.453125 C 253.050781 297.453125 253.304688 297.554688 253.359375 297.582031 L 253.472656 297.632812 L 253.921875 297.832031 L 257.53125 299.457031 C 259.972656 300.570312 262.539062 301.824219 265.28125 303.433594 C 265.28125 303.433594 273.84375 308.375 273.847656 308.378906 C 282.378906 313.308594 291.953125 319.207031 299.96875 321.8125 C 303.933594 323.101562 307.785156 324.109375 311.472656 324.707031 C 313.3125 325.007812 315.109375 325.210938 316.859375 325.328125 C 317.914062 325.394531 320.78125 324.65625 321.960938 325.394531 L 314.589844 321.117188 C 311.6875 319.492188 308.78125 317.433594 305.875 315.617188 Z M 305.875 315.617188 "/></g></g></g></g></svg>